<svg xmlns="http://www.w3.org/2000/svg" xmlns:xlink="http://www.w3.org/1999/xlink" contentStyleType="text/css" data-diagram-type="DESCRIPTION" height="338px" preserveAspectRatio="none" style="width:670px;height:338px;background:#FFFFFF;" version="1.1" viewBox="0 0 670 338" width="670px" zoomAndPan="magnify"><defs/><g><!--cluster Inputs--><g class="cluster" data-entity="Inputs" data-source-line="3" data-uid="ent0002" id="cluster_Inputs"><rect fill="none" height="203.97" rx="2.5" ry="2.5" style="stroke:#181818;stroke-width:1;" width="657" x="7" y="7"/><text fill="#000000" font-family="sans-serif" font-size="14" font-weight="bold" lengthAdjust="spacing" textLength="45.8965" x="312.5518" y="22.5352">Inputs</text></g><!--cluster Outputs--><g class="cluster" data-entity="Outputs" data-source-line="11" data-uid="ent0008" id="cluster_Outputs"><rect fill="none" height="97.49" rx="2.5" ry="2.5" style="stroke:#181818;stroke-width:1;" width="534" x="124" y="234.97"/><text fill="#000000" font-family="sans-serif" font-size="14" font-weight="bold" lengthAdjust="spacing" textLength="58.4541" x="361.7729" y="250.5052">Outputs</text></g><!--entity schemas--><g class="entity" data-entity="schemas" data-source-line="4" data-uid="ent0003" id="entity_schemas"><rect fill="#F1F1F1" height="46.4883" rx="2.5" ry="2.5" style="stroke:#181818;stroke-width:0.5;" width="99.1377" x="23.43" y="42"/><rect fill="#F1F1F1" height="10" style="stroke:#181818;stroke-width:0.5;" width="15" x="102.5677" y="47"/><rect fill="#F1F1F1" height="2" style="stroke:#181818;stroke-width:0.5;" width="4" x="100.5677" y="49"/><rect fill="#F1F1F1" height="2" style="stroke:#181818;stroke-width:0.5;" width="4" x="100.5677" y="53"/><text fill="#000000" font-family="sans-serif" font-size="14" lengthAdjust="spacing" textLength="59.1377" x="38.43" y="75.5352">Schemas</text></g><!--entity examples--><g class="entity" data-entity="examples" data-source-line="5" data-uid="ent0004" id="entity_examples"><rect fill="#F1F1F1" height="46.4883" rx="2.5" ry="2.5" style="stroke:#181818;stroke-width:0.5;" width="104.7705" x="157.61" y="42"/><rect fill="#F1F1F1" height="10" style="stroke:#181818;stroke-width:0.5;" width="15" x="242.3805" y="47"/><rect fill="#F1F1F1" height="2" style="stroke:#181818;stroke-width:0.5;" width="4" x="240.3805" y="49"/><rect fill="#F1F1F1" height="2" style="stroke:#181818;stroke-width:0.5;" width="4" x="240.3805" y="53"/><text fill="#000000" font-family="sans-serif" font-size="14" lengthAdjust="spacing" textLength="64.7705" x="172.61" y="75.5352">Examples</text></g><!--entity rules--><g class="entity" data-entity="rules" data-source-line="6" data-uid="ent0005" id="entity_rules"><rect fill="#F1F1F1" height="46.4883" rx="2.5" ry="2.5" style="stroke:#181818;stroke-width:0.5;" width="104.3535" x="157.82" y="148.48"/><rect fill="#F1F1F1" height="10" style="stroke:#181818;stroke-width:0.5;" width="15" x="242.1735" y="153.48"/><rect fill="#F1F1F1" height="2" style="stroke:#181818;stroke-width:0.5;" width="4" x="240.1735" y="155.48"/><rect fill="#F1F1F1" height="2" style="stroke:#181818;stroke-width:0.5;" width="4" x="240.1735" y="159.48"/><text fill="#000000" font-family="sans-serif" font-size="14" lengthAdjust="spacing" textLength="64.3535" x="172.82" y="182.0152">Rules File</text></g><!--entity ug_adoc--><g class="entity" data-entity="ug_adoc" data-source-line="7" data-uid="ent0006" id="entity_ug_adoc"><rect fill="#F1F1F1" height="46.4883" rx="2.5" ry="2.5" style="stroke:#181818;stroke-width:0.5;" width="151.002" x="297.5" y="42"/><rect fill="#F1F1F1" height="10" style="stroke:#181818;stroke-width:0.5;" width="15" x="428.502" y="47"/><rect fill="#F1F1F1" height="2" style="stroke:#181818;stroke-width:0.5;" width="4" x="426.502" y="49"/><rect fill="#F1F1F1" height="2" style="stroke:#181818;stroke-width:0.5;" width="4" x="426.502" y="53"/><text fill="#000000" font-family="sans-serif" font-size="14" lengthAdjust="spacing" textLength="111.002" x="312.5" y="75.5352">User Guide adoc</text></g><!--entity confy--><g class="entity" data-entity="confy" data-source-line="8" data-uid="ent0007" id="entity_confy"><rect fill="#F1F1F1" height="46.4883" rx="2.5" ry="2.5" style="stroke:#181818;stroke-width:0.5;" width="164.9883" x="483.51" y="42"/><rect fill="#F1F1F1" height="10" style="stroke:#181818;stroke-width:0.5;" width="15" x="628.4983" y="47"/><rect fill="#F1F1F1" height="2" style="stroke:#181818;stroke-width:0.5;" width="4" x="626.4983" y="49"/><rect fill="#F1F1F1" height="2" style="stroke:#181818;stroke-width:0.5;" width="4" x="626.4983" y="53"/><text fill="#000000" font-family="sans-serif" font-size="14" lengthAdjust="spacing" textLength="124.9883" x="498.51" y="75.5352">conformance.yaml</text></g><!--entity OAS--><g class="entity" data-entity="OAS" data-source-line="12" data-uid="ent0009" id="entity_OAS"><rect fill="#F1F1F1" height="46.4883" rx="2.5" ry="2.5" style="stroke:#181818;stroke-width:0.5;" width="139.2168" x="140.39" y="269.97"/><rect fill="#F1F1F1" height="10" style="stroke:#181818;stroke-width:0.5;" width="15" x="259.6068" y="274.97"/><rect fill="#F1F1F1" height="2" style="stroke:#181818;stroke-width:0.5;" width="4" x="257.6068" y="276.97"/><rect fill="#F1F1F1" height="2" style="stroke:#181818;stroke-width:0.5;" width="4" x="257.6068" y="280.97"/><text fill="#000000" font-family="sans-serif" font-size="14" lengthAdjust="spacing" textLength="99.2168" x="155.39" y="303.5052">OpenAPI (OAS)</text></g><!--entity UserGuide--><g class="entity" data-entity="UserGuide" data-source-line="13" data-uid="ent0010" id="entity_UserGuide"><rect fill="#F1F1F1" height="46.4883" rx="2.5" ry="2.5" style="stroke:#181818;stroke-width:0.5;" width="114.2588" x="314.87" y="269.97"/><rect fill="#F1F1F1" height="10" style="stroke:#181818;stroke-width:0.5;" width="15" x="409.1288" y="274.97"/><rect fill="#F1F1F1" height="2" style="stroke:#181818;stroke-width:0.5;" width="4" x="407.1288" y="276.97"/><rect fill="#F1F1F1" height="2" style="stroke:#181818;stroke-width:0.5;" width="4" x="407.1288" y="280.97"/><text fill="#000000" font-family="sans-serif" font-size="14" lengthAdjust="spacing" textLength="74.2588" x="329.87" y="303.5052">User Guide</text></g><!--entity ConformanceProfile--><g class="entity" data-entity="ConformanceProfile" data-source-line="14" data-uid="ent0011" id="entity_ConformanceProfile"><rect fill="#F1F1F1" height="46.4883" rx="2.5" ry="2.5" style="stroke:#181818;stroke-width:0.5;" width="178.4482" x="463.78" y="269.97"/><rect fill="#F1F1F1" height="10" style="stroke:#181818;stroke-width:0.5;" width="15" x="622.2282" y="274.97"/><rect fill="#F1F1F1" height="2" style="stroke:#181818;stroke-width:0.5;" width="4" x="620.2282" y="276.97"/><rect fill="#F1F1F1" height="2" style="stroke:#181818;stroke-width:0.5;" width="4" x="620.2282" y="280.97"/><text fill="#000000" font-family="sans-serif" font-size="14" lengthAdjust="spacing" textLength="138.4482" x="478.78" y="303.5052">Conformance Profile</text></g><!--link schemas to rules--><g class="link" data-entity-1="schemas" data-entity-2="rules" data-source-line="17" data-uid="lnk12" id="link_schemas_rules"><path d="M102.73,88.91 C125.71,106.44 152.6001,126.9402 175.5601,144.4602" fill="none" id="schemas-to-rules" style="stroke:#181818;stroke-width:1;"/><polygon fill="#181818" points="180.33,148.1,175.6016,139.4604,176.3551,145.0669,170.7486,145.8203,180.33,148.1" style="stroke:#181818;stroke-width:1;"/></g><!--link examples to rules--><g class="link" data-entity-1="examples" data-entity-2="rules" data-source-line="18" data-uid="lnk13" id="link_examples_rules"><path d="M210,88.91 C210,106.44 210,124.58 210,142.1" fill="none" id="examples-to-rules" style="stroke:#181818;stroke-width:1;"/><polygon fill="#181818" points="210,148.1,214,139.1,210,143.1,206,139.1,210,148.1" style="stroke:#181818;stroke-width:1;"/></g><!--link rules to OAS--><g class="link" data-entity-1="rules" data-entity-2="OAS" data-source-line="19" data-uid="lnk14" id="link_rules_OAS"><path d="M210,195.2 C210,216.56 210,242.51 210,263.84" fill="none" id="rules-to-OAS" style="stroke:#181818;stroke-width:1;"/><polygon fill="#181818" points="210,269.84,214,260.84,210,264.84,206,260.84,210,269.84" style="stroke:#181818;stroke-width:1;"/></g><!--link confy to ConformanceProfile--><g class="link" data-entity-1="confy" data-entity-2="ConformanceProfile" data-source-line="20" data-uid="lnk15" id="link_confy_ConformanceProfile"><path d="M564.71,88.73 C562.22,131.94 557.1437,220.0899 554.6537,263.4899" fill="none" id="confy-to-ConformanceProfile" style="stroke:#181818;stroke-width:1;"/><polygon fill="#181818" points="554.31,269.48,558.8189,260.7239,554.5964,264.4882,550.8321,260.2657,554.31,269.48" style="stroke:#181818;stroke-width:1;"/></g><!--link rules to UserGuide--><g class="link" data-entity-1="rules" data-entity-2="UserGuide" data-source-line="21" data-uid="lnk16" id="link_rules_UserGuide"><path d="M248.98,195.22 C264.31,204.53 281.83,215.75 297,226.97 C314.9,240.21 329.3643,252.6297 343.7243,265.7097" fill="none" id="rules-to-UserGuide" style="stroke:#181818;stroke-width:1;"/><polygon fill="#181818" points="348.16,269.75,344.2,260.7323,344.4636,266.3831,338.8129,266.6466,348.16,269.75" style="stroke:#181818;stroke-width:1;"/></g><!--link ug_adoc to UserGuide--><g class="link" data-entity-1="ug_adoc" data-entity-2="UserGuide" data-source-line="22" data-uid="lnk17" id="link_ug_adoc_UserGuide"><path d="M372.9,88.73 C372.71,131.94 372.3163,220.0801 372.1263,263.4801" fill="none" id="ug_adoc-to-UserGuide" style="stroke:#181818;stroke-width:1;"/><polygon fill="#181818" points="372.1,269.48,376.1394,260.4976,372.1219,264.48,368.1394,260.4626,372.1,269.48" style="stroke:#181818;stroke-width:1;"/></g><!--SRC=[RP312i8m44Jl_Oh5anxq4mGH5KyLYoSHMU9QYqaQaWOiuh_hhf5MyL9ctYJPsOPhPHrwDE1GNR6aecarWIVLe2qrPLdYC5XR5vimW7i6i2_KXGo60s20yDQC5pSqJjERKp8SREDBmBBI996FYUy2ULZ5waI0frf96CiZQuvLRS-rDsWLJLeqMdA6RVReLSjZq-kMExAppHg6-QmOoOsN-1ucbAqupkRT9DZu-lnfskC9y-IqCep7qxJBPzaUagzudY-jnVrviZlQbKg_uOS-0G00]--></g></svg>