<?xml version="1.0" encoding="us-ascii" standalone="no"?><svg xmlns="http://www.w3.org/2000/svg" xmlns:xlink="http://www.w3.org/1999/xlink" contentStyleType="text/css" height="1799px" preserveAspectRatio="none" style="width:2174px;height:1799px;background:#FFFFFF;" version="1.1" viewBox="0 0 2174 1799" width="2174px" zoomAndPan="magnify"><defs/><g><rect fill="#FFA500" height="68.8906" rx="12.5" ry="12.5" style="stroke:#181818;stroke-width:1.5;" width="124" x="1059" y="864.4531"/><text fill="#000000" font-family="sans-serif" font-size="14" font-weight="bold" lengthAdjust="spacing" textLength="103" x="1069" y="887.4482">TMForum API</text><text fill="#000000" font-family="sans-serif" font-size="14" font-weight="bold" lengthAdjust="spacing" textLength="104" x="1069" y="903.7451">Development</text><text fill="#000000" font-family="sans-serif" font-size="14" font-weight="bold" lengthAdjust="spacing" textLength="85" x="1069" y="920.042">Guidebook</text><rect fill="#F1F1F1" height="68.8906" rx="12.5" ry="12.5" style="stroke:#181818;stroke-width:1.5;" width="101" x="1233" y="723.7109"/><a href="https://github.com/tmforum-rand/ig1353-api-developers-guide/blob/main/part1.adoc" target="_top" title="https://github.com/tmforum-rand/ig1353-api-developers-guide/blob/main/part1.adoc" xlink:actuate="onRequest" xlink:href="https://github.com/tmforum-rand/ig1353-api-developers-guide/blob/main/part1.adoc" xlink:show="new" xlink:title="https://github.com/tmforum-rand/ig1353-api-developers-guide/blob/main/part1.adoc" xlink:type="simple"><text fill="#0000FF" font-family="sans-serif" font-size="14" font-weight="bold" lengthAdjust="spacing" text-decoration="underline" textLength="47" x="1243" y="746.7061">Part 1</text></a><text fill="#000000" font-family="sans-serif" font-size="14" lengthAdjust="spacing" textLength="34" x="1243" y="763.0029">Initial</text><text fill="#000000" font-family="sans-serif" font-size="14" lengthAdjust="spacing" textLength="81" x="1243" y="779.2998">Onboarding</text><rect fill="#F1F1F1" height="52.5938" rx="12.5" ry="12.5" style="stroke:#181818;stroke-width:1.5;" width="118" x="1384" y="478.5234"/><text fill="#000000" font-family="sans-serif" font-size="14" lengthAdjust="spacing" textLength="96" x="1394" y="501.5186">Prerequisites/</text><text fill="#000000" font-family="sans-serif" font-size="14" lengthAdjust="spacing" textLength="98" x="1394" y="517.8154">Good to Know</text><rect fill="#F1F1F1" height="36.2969" rx="12.5" ry="12.5" style="stroke:#181818;stroke-width:1.5;" width="408" x="1552" y="345.9297"/><text fill="#000000" font-family="sans-serif" font-size="14" lengthAdjust="spacing" textLength="384" x="1562" y="368.9248">Swagger/OAS Specifications and the REST API paradigm</text><path d="M1502,504.8203 L1512,504.8203 C1527,504.8203 1527,364.0781 1542,364.0781 L1552,364.0781 " fill="none" style="stroke:#181818;stroke-width:1.0;"/><rect fill="#F1F1F1" height="36.2969" rx="12.5" ry="12.5" style="stroke:#181818;stroke-width:1.5;" width="202" x="1552" y="402.2266"/><text fill="#000000" font-family="sans-serif" font-size="14" lengthAdjust="spacing" textLength="182" x="1562" y="425.2217">The API Design Guidelines</text><path d="M1502,504.8203 L1512,504.8203 C1527,504.8203 1527,420.375 1542,420.375 L1552,420.375 " fill="none" style="stroke:#181818;stroke-width:1.0;"/><rect fill="#F1F1F1" height="36.2969" rx="12.5" ry="12.5" style="stroke:#181818;stroke-width:1.5;" width="146" x="1552" y="458.5234"/><text fill="#000000" font-family="sans-serif" font-size="14" lengthAdjust="spacing" textLength="126" x="1562" y="481.5186">Microsoft VS Code</text><path d="M1502,504.8203 L1512,504.8203 C1527,504.8203 1527,476.6719 1542,476.6719 L1552,476.6719 " fill="none" style="stroke:#181818;stroke-width:1.0;"/><rect fill="#F1F1F1" height="36.2969" rx="12.5" ry="12.5" style="stroke:#181818;stroke-width:1.5;" width="139" x="1552" y="514.8203"/><text fill="#000000" font-family="sans-serif" font-size="14" lengthAdjust="spacing" textLength="119" x="1562" y="537.8154">editor.swagger.io</text><path d="M1502,504.8203 L1512,504.8203 C1527,504.8203 1527,532.9688 1542,532.9688 L1552,532.9688 " fill="none" style="stroke:#181818;stroke-width:1.0;"/><rect fill="#F1F1F1" height="36.2969" rx="12.5" ry="12.5" style="stroke:#181818;stroke-width:1.5;" width="261" x="1552" y="571.1172"/><text fill="#000000" font-family="sans-serif" font-size="14" lengthAdjust="spacing" textLength="241" x="1562" y="594.1123">TMForum Information Model Basics</text><rect fill="#F1F1F1" height="36.2969" rx="12.5" ry="12.5" style="stroke:#181818;stroke-width:1.5;" width="207" x="1863" y="514.8203"/><text fill="#000000" font-family="sans-serif" font-size="14" lengthAdjust="spacing" textLength="187" x="1873" y="537.8154">Product, Service, Resource</text><path d="M1813,589.2656 L1823,589.2656 C1838,589.2656 1838,532.9688 1853,532.9688 L1863,532.9688 " fill="none" style="stroke:#181818;stroke-width:1.0;"/><rect fill="#F1F1F1" height="36.2969" rx="12.5" ry="12.5" style="stroke:#181818;stroke-width:1.5;" width="190" x="1863" y="571.1172"/><text fill="#000000" font-family="sans-serif" font-size="14" lengthAdjust="spacing" textLength="170" x="1873" y="594.1123">Catalog, Order, Inventory</text><path d="M1813,589.2656 L1823,589.2656 C1838,589.2656 1838,589.2656 1853,589.2656 L1863,589.2656 " fill="none" style="stroke:#181818;stroke-width:1.0;"/><rect fill="#F1F1F1" height="36.2969" rx="12.5" ry="12.5" style="stroke:#181818;stroke-width:1.5;" width="127" x="1863" y="627.4141"/><text fill="#000000" font-family="sans-serif" font-size="14" lengthAdjust="spacing" textLength="107" x="1873" y="650.4092">Party, PartyRole</text><path d="M1813,589.2656 L1823,589.2656 C1838,589.2656 1838,645.5625 1853,645.5625 L1863,645.5625 " fill="none" style="stroke:#181818;stroke-width:1.0;"/><path d="M1502,504.8203 L1512,504.8203 C1527,504.8203 1527,589.2656 1542,589.2656 L1552,589.2656 " fill="none" style="stroke:#181818;stroke-width:1.0;"/><path d="M1334,758.1563 L1344,758.1563 C1359,758.1563 1359,504.8203 1374,504.8203 L1384,504.8203 " fill="none" style="stroke:#181818;stroke-width:1.0;"/><rect fill="#F1F1F1" height="52.5938" rx="12.5" ry="12.5" style="stroke:#181818;stroke-width:1.5;" width="101" x="1384" y="900.75"/><text fill="#000000" font-family="sans-serif" font-size="14" lengthAdjust="spacing" textLength="68" x="1394" y="923.7451">First-Time</text><text fill="#000000" font-family="sans-serif" font-size="14" lengthAdjust="spacing" textLength="81" x="1394" y="940.042">Onboarding</text><rect fill="#F1F1F1" height="52.5938" rx="12.5" ry="12.5" style="stroke:#181818;stroke-width:1.5;" width="294" x="1535" y="703.7109"/><text fill="#000000" font-family="sans-serif" font-size="14" lengthAdjust="spacing" textLength="197" x="1545" y="726.7061">Registering on TMForum.org</text><text fill="#000000" font-family="sans-serif" font-size="14" lengthAdjust="spacing" textLength="274" x="1545" y="743.0029">https://myaccount.tmforum.org/register</text><rect fill="#F1F1F1" height="36.2969" rx="12.5" ry="12.5" style="stroke:#181818;stroke-width:1.5;" width="171" x="1879" y="683.7109"/><text fill="#000000" font-family="sans-serif" font-size="14" lengthAdjust="spacing" textLength="151" x="1889" y="706.7061">Setting up your Profile</text><path d="M1829,730.0078 L1839,730.0078 C1854,730.0078 1854,701.8594 1869,701.8594 L1879,701.8594 " fill="none" style="stroke:#181818;stroke-width:1.0;"/><rect fill="#F1F1F1" height="36.2969" rx="12.5" ry="12.5" style="stroke:#181818;stroke-width:1.5;" width="191" x="1879" y="740.0078"/><text fill="#000000" font-family="sans-serif" font-size="14" lengthAdjust="spacing" textLength="171" x="1889" y="763.0029">Company SPOC Approval</text><path d="M1829,730.0078 L1839,730.0078 C1854,730.0078 1854,758.1563 1869,758.1563 L1879,758.1563 " fill="none" style="stroke:#181818;stroke-width:1.0;"/><path d="M1485,927.0469 L1495,927.0469 C1510,927.0469 1510,730.0078 1525,730.0078 L1535,730.0078 " fill="none" style="stroke:#181818;stroke-width:1.0;"/><rect fill="#F1F1F1" height="52.5938" rx="12.5" ry="12.5" style="stroke:#181818;stroke-width:1.5;" width="201" x="1535" y="844.4531"/><text fill="#000000" font-family="sans-serif" font-size="14" lengthAdjust="spacing" textLength="181" x="1545" y="867.4482">Joining the API Programme</text><text fill="#000000" font-family="sans-serif" font-size="14" lengthAdjust="spacing" textLength="129" x="1545" y="883.7451">(and workstreams)</text><rect fill="#F1F1F1" height="36.2969" rx="12.5" ry="12.5" style="stroke:#181818;stroke-width:1.5;" width="302" x="1786" y="796.3047"/><text fill="#000000" font-family="sans-serif" font-size="14" lengthAdjust="spacing" textLength="282" x="1796" y="819.2998">Access to Git, tmforum-rand organization</text><path d="M1736,870.75 L1746,870.75 C1761,870.75 1761,814.4531 1776,814.4531 L1786,814.4531 " fill="none" style="stroke:#181818;stroke-width:1.0;"/><rect fill="#F1F1F1" height="52.5938" rx="12.5" ry="12.5" style="stroke:#181818;stroke-width:1.5;" width="163" x="1786" y="872.6016"/><text fill="#000000" font-family="sans-serif" font-size="14" lengthAdjust="spacing" textLength="143" x="1796" y="895.5967">Confluence and JIRA:</text><text fill="#000000" font-family="sans-serif" font-size="14" lengthAdjust="spacing" textLength="126" x="1796" y="911.8936">What, Where, How</text><rect fill="#F1F1F1" height="36.2969" rx="12.5" ry="12.5" style="stroke:#181818;stroke-width:1.5;" width="133" x="1999" y="852.6016"/><text fill="#000000" font-family="sans-serif" font-size="14" lengthAdjust="spacing" textLength="113" x="2009" y="875.5967">"Technical JIRAs"</text><path d="M1949,898.8984 L1959,898.8984 C1974,898.8984 1974,870.75 1989,870.75 L1999,870.75 " fill="none" style="stroke:#181818;stroke-width:1.0;"/><rect fill="#F1F1F1" height="36.2969" rx="12.5" ry="12.5" style="stroke:#181818;stroke-width:1.5;" width="163" x="1999" y="908.8984"/><text fill="#000000" font-family="sans-serif" font-size="14" lengthAdjust="spacing" textLength="143" x="2009" y="931.8936">"Administrative JIRAs"</text><path d="M1949,898.8984 L1959,898.8984 C1974,898.8984 1974,927.0469 1989,927.0469 L1999,927.0469 " fill="none" style="stroke:#181818;stroke-width:1.0;"/><path d="M1736,870.75 L1746,870.75 C1761,870.75 1761,898.8984 1776,898.8984 L1786,898.8984 " fill="none" style="stroke:#181818;stroke-width:1.0;"/><path d="M1485,927.0469 L1495,927.0469 C1510,927.0469 1510,870.75 1525,870.75 L1535,870.75 " fill="none" style="stroke:#181818;stroke-width:1.0;"/><rect fill="#F1F1F1" height="36.2969" rx="12.5" ry="12.5" style="stroke:#181818;stroke-width:1.5;" width="127" x="1535" y="1049.6406"/><text fill="#000000" font-family="sans-serif" font-size="14" lengthAdjust="spacing" textLength="107" x="1545" y="1072.6357">Team Meetings</text><rect fill="#F1F1F1" height="36.2969" rx="12.5" ry="12.5" style="stroke:#181818;stroke-width:1.5;" width="126" x="1712" y="965.1953"/><text fill="#000000" font-family="sans-serif" font-size="14" lengthAdjust="spacing" textLength="106" x="1722" y="988.1904">Factory/Tooling</text><path d="M1662,1067.7891 L1672,1067.7891 C1687,1067.7891 1687,983.3438 1702,983.3438 L1712,983.3438 " fill="none" style="stroke:#181818;stroke-width:1.0;"/><rect fill="#F1F1F1" height="36.2969" rx="12.5" ry="12.5" style="stroke:#181818;stroke-width:1.5;" width="195" x="1712" y="1021.4922"/><text fill="#000000" font-family="sans-serif" font-size="14" lengthAdjust="spacing" textLength="175" x="1722" y="1044.4873">Programme Management</text><path d="M1662,1067.7891 L1672,1067.7891 C1687,1067.7891 1687,1039.6406 1702,1039.6406 L1712,1039.6406 " fill="none" style="stroke:#181818;stroke-width:1.0;"/><rect fill="#F1F1F1" height="36.2969" rx="12.5" ry="12.5" style="stroke:#181818;stroke-width:1.5;" width="129" x="1712" y="1077.7891"/><text fill="#000000" font-family="sans-serif" font-size="14" lengthAdjust="spacing" textLength="109" x="1722" y="1100.7842">API Governance</text><path d="M1662,1067.7891 L1672,1067.7891 C1687,1067.7891 1687,1095.9375 1702,1095.9375 L1712,1095.9375 " fill="none" style="stroke:#181818;stroke-width:1.0;"/><rect fill="#F1F1F1" height="36.2969" rx="12.5" ry="12.5" style="stroke:#181818;stroke-width:1.5;" width="104" x="1712" y="1134.0859"/><text fill="#000000" font-family="sans-serif" font-size="14" lengthAdjust="spacing" textLength="84" x="1722" y="1157.0811">Architecture</text><path d="M1662,1067.7891 L1672,1067.7891 C1687,1067.7891 1687,1152.2344 1702,1152.2344 L1712,1152.2344 " fill="none" style="stroke:#181818;stroke-width:1.0;"/><path d="M1485,927.0469 L1495,927.0469 C1510,927.0469 1510,1067.7891 1525,1067.7891 L1535,1067.7891 " fill="none" style="stroke:#181818;stroke-width:1.0;"/><path d="M1334,758.1563 L1344,758.1563 C1359,758.1563 1359,927.0469 1374,927.0469 L1384,927.0469 " fill="none" style="stroke:#181818;stroke-width:1.0;"/><path d="M1183,898.8984 L1193,898.8984 C1208,898.8984 1208,758.1563 1223,758.1563 L1233,758.1563 " fill="none" style="stroke:#181818;stroke-width:1.0;"/><rect fill="#F1F1F1" height="85.1875" rx="12.5" ry="12.5" style="stroke:#181818;stroke-width:1.5;" width="164" x="1233" y="1278.5313"/><text fill="#000000" font-family="sans-serif" font-size="14" font-weight="bold" lengthAdjust="spacing" textLength="47" x="1243" y="1301.5264">Part 2</text><text fill="#000000" font-family="sans-serif" font-size="14" lengthAdjust="spacing" textLength="78" x="1243" y="1317.8232">Developing</text><text fill="#000000" font-family="sans-serif" font-size="14" lengthAdjust="spacing" textLength="144" x="1243" y="1334.1201">a new APIDeveloping</text><text fill="#000000" font-family="sans-serif" font-size="14" lengthAdjust="spacing" textLength="66" x="1243" y="1350.417">a new API</text><rect fill="#F1F1F1" height="36.2969" rx="12.5" ry="12.5" style="stroke:#181818;stroke-width:1.5;" width="109" x="1447" y="1190.3828"/><text fill="#000000" font-family="sans-serif" font-size="14" lengthAdjust="spacing" textLength="89" x="1457" y="1213.3779">API Inception</text><path d="M1397,1321.125 L1407,1321.125 C1422,1321.125 1422,1208.5313 1437,1208.5313 L1447,1208.5313 " fill="none" style="stroke:#181818;stroke-width:1.0;"/><rect fill="#F1F1F1" height="36.2969" rx="12.5" ry="12.5" style="stroke:#181818;stroke-width:1.5;" width="87" x="1447" y="1246.6797"/><text fill="#000000" font-family="sans-serif" font-size="14" lengthAdjust="spacing" textLength="67" x="1457" y="1269.6748">API Profile</text><path d="M1397,1321.125 L1407,1321.125 C1422,1321.125 1422,1264.8281 1437,1264.8281 L1447,1264.8281 " fill="none" style="stroke:#181818;stroke-width:1.0;"/><rect fill="#F1F1F1" height="36.2969" rx="12.5" ry="12.5" style="stroke:#181818;stroke-width:1.5;" width="133" x="1447" y="1302.9766"/><text fill="#000000" font-family="sans-serif" font-size="14" lengthAdjust="spacing" textLength="113" x="1457" y="1325.9717">TMF API Number</text><path d="M1397,1321.125 L1407,1321.125 C1422,1321.125 1422,1321.125 1437,1321.125 L1447,1321.125 " fill="none" style="stroke:#181818;stroke-width:1.0;"/><rect fill="#F1F1F1" height="36.2969" rx="12.5" ry="12.5" style="stroke:#181818;stroke-width:1.5;" width="137" x="1447" y="1359.2734"/><text fill="#000000" font-family="sans-serif" font-size="14" lengthAdjust="spacing" textLength="117" x="1457" y="1382.2686">API Folder Layout</text><rect fill="#F1F1F1" height="36.2969" rx="12.5" ry="12.5" style="stroke:#181818;stroke-width:1.5;" width="152" x="1634" y="1302.9766"/><text fill="#000000" font-family="sans-serif" font-size="14" lengthAdjust="spacing" textLength="132" x="1644" y="1325.9717">The "API Rules File"</text><path d="M1584,1377.4219 L1594,1377.4219 C1609,1377.4219 1609,1321.125 1624,1321.125 L1634,1321.125 " fill="none" style="stroke:#181818;stroke-width:1.0;"/><rect fill="#F1F1F1" height="36.2969" rx="12.5" ry="12.5" style="stroke:#181818;stroke-width:1.5;" width="185" x="1634" y="1359.2734"/><text fill="#000000" font-family="sans-serif" font-size="14" lengthAdjust="spacing" textLength="165" x="1644" y="1382.2686">The Schema Repository</text><path d="M1584,1377.4219 L1594,1377.4219 C1609,1377.4219 1609,1377.4219 1624,1377.4219 L1634,1377.4219 " fill="none" style="stroke:#181818;stroke-width:1.0;"/><rect fill="#F1F1F1" height="36.2969" rx="12.5" ry="12.5" style="stroke:#181818;stroke-width:1.5;" width="86" x="1634" y="1415.5703"/><text fill="#000000" font-family="sans-serif" font-size="14" lengthAdjust="spacing" textLength="66" x="1644" y="1438.5654">Examples</text><path d="M1584,1377.4219 L1594,1377.4219 C1609,1377.4219 1609,1433.7188 1624,1433.7188 L1634,1433.7188 " fill="none" style="stroke:#181818;stroke-width:1.0;"/><path d="M1397,1321.125 L1407,1321.125 C1422,1321.125 1422,1377.4219 1437,1377.4219 L1447,1377.4219 " fill="none" style="stroke:#181818;stroke-width:1.0;"/><path d="M1183,898.8984 L1193,898.8984 C1208,898.8984 1208,1321.125 1223,1321.125 L1233,1321.125 " fill="none" style="stroke:#181818;stroke-width:1.0;"/><rect fill="#F1F1F1" height="85.1875" rx="12.5" ry="12.5" style="stroke:#181818;stroke-width:1.5;" width="113" x="896" y="771.8594"/><a href="https://github.com/tmforum-rand/ig1353-api-developers-guide/blob/main/part3.adoc" target="_top" title="https://github.com/tmforum-rand/ig1353-api-developers-guide/blob/main/part3.adoc" xlink:actuate="onRequest" xlink:href="https://github.com/tmforum-rand/ig1353-api-developers-guide/blob/main/part3.adoc" xlink:show="new" xlink:title="https://github.com/tmforum-rand/ig1353-api-developers-guide/blob/main/part3.adoc" xlink:type="simple"><text fill="#0000FF" font-family="sans-serif" font-size="14" font-weight="bold" lengthAdjust="spacing" text-decoration="underline" textLength="47" x="906" y="794.8545">Part 3</text></a><text fill="#000000" font-family="sans-serif" font-size="14" lengthAdjust="spacing" textLength="52" x="906" y="811.1514">The API</text><text fill="#000000" font-family="sans-serif" font-size="14" lengthAdjust="spacing" textLength="93" x="906" y="827.4482">Development</text><text fill="#000000" font-family="sans-serif" font-size="14" lengthAdjust="spacing" textLength="34" x="906" y="843.7451">Loop</text><rect fill="#F1F1F1" height="36.2969" rx="12.5" ry="12.5" style="stroke:#181818;stroke-width:1.5;" width="155" x="691" y="104.4453"/><text fill="#000000" font-family="sans-serif" font-size="14" lengthAdjust="spacing" textLength="135" x="701" y="127.4404">Managing Our Work</text><rect fill="#F1F1F1" height="36.2969" rx="12.5" ry="12.5" style="stroke:#181818;stroke-width:1.5;" width="297" x="344" y="20"/><text fill="#000000" font-family="sans-serif" font-size="14" lengthAdjust="spacing" textLength="277" x="354" y="42.9951">API Epics: Tracking API Asset Production</text><path d="M691,122.5938 L681,122.5938 C666,122.5938 666,38.1484 651,38.1484 L641,38.1484 " fill="none" style="stroke:#181818;stroke-width:1.0;"/><rect fill="#F1F1F1" height="36.2969" rx="12.5" ry="12.5" style="stroke:#181818;stroke-width:1.5;" width="243" x="398" y="76.2969"/><text fill="#000000" font-family="sans-serif" font-size="14" lengthAdjust="spacing" textLength="223" x="408" y="99.292">Technical JIRAs: The API Backlog</text><path d="M691,122.5938 L681,122.5938 C666,122.5938 666,94.4453 651,94.4453 L641,94.4453 " fill="none" style="stroke:#181818;stroke-width:1.0;"/><rect fill="#F1F1F1" height="36.2969" rx="12.5" ry="12.5" style="stroke:#181818;stroke-width:1.5;" width="311" x="330" y="132.5938"/><text fill="#000000" font-family="sans-serif" font-size="14" lengthAdjust="spacing" textLength="291" x="340" y="155.5889">Git Issues: The Tooling and CI/CD Backlog</text><path d="M691,122.5938 L681,122.5938 C666,122.5938 666,150.7422 651,150.7422 L641,150.7422 " fill="none" style="stroke:#181818;stroke-width:1.0;"/><rect fill="#F1F1F1" height="36.2969" rx="12.5" ry="12.5" style="stroke:#181818;stroke-width:1.5;" width="280" x="361" y="188.8906"/><text fill="#000000" font-family="sans-serif" font-size="14" lengthAdjust="spacing" textLength="260" x="371" y="211.8857">Branching Strategy and Pull Requests</text><path d="M691,122.5938 L681,122.5938 C666,122.5938 666,207.0391 651,207.0391 L641,207.0391 " fill="none" style="stroke:#181818;stroke-width:1.0;"/><path d="M896,814.4531 L886,814.4531 C871,814.4531 871,122.5938 856,122.5938 L846,122.5938 " fill="none" style="stroke:#181818;stroke-width:1.0;"/><rect fill="#F1F1F1" height="36.2969" rx="12.5" ry="12.5" style="stroke:#181818;stroke-width:1.5;" width="186" x="660" y="414.0781"/><text fill="#000000" font-family="sans-serif" font-size="14" lengthAdjust="spacing" textLength="166" x="670" y="437.0732">The Production Process</text><rect fill="#F1F1F1" height="36.2969" rx="12.5" ry="12.5" style="stroke:#181818;stroke-width:1.5;" width="221" x="389" y="245.1875"/><text fill="#000000" font-family="sans-serif" font-size="14" lengthAdjust="spacing" textLength="201" x="399" y="268.1826">OAS Specification Generation</text><path d="M660,432.2266 L650,432.2266 C635,432.2266 635,263.3359 620,263.3359 L610,263.3359 " fill="none" style="stroke:#181818;stroke-width:1.0;"/><rect fill="#F1F1F1" height="36.2969" rx="12.5" ry="12.5" style="stroke:#181818;stroke-width:1.5;" width="225" x="385" y="301.4844"/><text fill="#000000" font-family="sans-serif" font-size="14" lengthAdjust="spacing" textLength="205" x="395" y="324.4795">PlantUML Diagram Generation</text><path d="M660,432.2266 L650,432.2266 C635,432.2266 635,319.6328 620,319.6328 L610,319.6328 " fill="none" style="stroke:#181818;stroke-width:1.0;"/><rect fill="#F1F1F1" height="36.2969" rx="12.5" ry="12.5" style="stroke:#181818;stroke-width:1.5;" width="255" x="355" y="357.7813"/><text fill="#000000" font-family="sans-serif" font-size="14" lengthAdjust="spacing" textLength="235" x="365" y="380.7764">User Guide Document Generation</text><path d="M660,432.2266 L650,432.2266 C635,432.2266 635,375.9297 620,375.9297 L610,375.9297 " fill="none" style="stroke:#181818;stroke-width:1.0;"/><rect fill="#F1F1F1" height="36.2969" rx="12.5" ry="12.5" style="stroke:#181818;stroke-width:1.5;" width="240" x="370" y="414.0781"/><text fill="#000000" font-family="sans-serif" font-size="14" lengthAdjust="spacing" textLength="220" x="380" y="437.0732">Conformance Profile Generation</text><path d="M660,432.2266 L650,432.2266 C635,432.2266 635,432.2266 620,432.2266 L610,432.2266 " fill="none" style="stroke:#181818;stroke-width:1.0;"/><rect fill="#F1F1F1" height="36.2969" rx="12.5" ry="12.5" style="stroke:#181818;stroke-width:1.5;" width="129" x="481" y="470.375"/><text fill="#000000" font-family="sans-serif" font-size="14" lengthAdjust="spacing" textLength="109" x="491" y="493.3701">CTK Generation</text><path d="M660,432.2266 L650,432.2266 C635,432.2266 635,488.5234 620,488.5234 L610,488.5234 " fill="none" style="stroke:#181818;stroke-width:1.0;"/><rect fill="#F1F1F1" height="36.2969" rx="12.5" ry="12.5" style="stroke:#181818;stroke-width:1.5;" width="211" x="399" y="526.6719"/><text fill="#000000" font-family="sans-serif" font-size="14" lengthAdjust="spacing" textLength="191" x="409" y="549.667">RI/Sample Code Generation</text><path d="M660,432.2266 L650,432.2266 C635,432.2266 635,544.8203 620,544.8203 L610,544.8203 " fill="none" style="stroke:#181818;stroke-width:1.0;"/><rect fill="#F1F1F1" height="36.2969" rx="12.5" ry="12.5" style="stroke:#181818;stroke-width:1.5;" width="186" x="424" y="582.9688"/><text fill="#000000" font-family="sans-serif" font-size="14" lengthAdjust="spacing" textLength="166" x="434" y="605.9639">The Publication Process</text><path d="M660,432.2266 L650,432.2266 C635,432.2266 635,601.1172 620,601.1172 L610,601.1172 " fill="none" style="stroke:#181818;stroke-width:1.0;"/><path d="M896,814.4531 L886,814.4531 C871,814.4531 871,432.2266 856,432.2266 L846,432.2266 " fill="none" style="stroke:#181818;stroke-width:1.0;"/><rect fill="#F1F1F1" height="36.2969" rx="12.5" ry="12.5" style="stroke:#181818;stroke-width:1.5;" width="72" x="774" y="1105.9375"/><text fill="#000000" font-family="sans-serif" font-size="14" lengthAdjust="spacing" textLength="52" x="784" y="1128.9326">How To</text><rect fill="#F1F1F1" height="36.2969" rx="12.5" ry="12.5" style="stroke:#181818;stroke-width:1.5;" width="173" x="551" y="667.4141"/><text fill="#000000" font-family="sans-serif" font-size="14" lengthAdjust="spacing" textLength="153" x="561" y="690.4092">Creating a Codespace</text><rect fill="#F1F1F1" height="36.2969" rx="12.5" ry="12.5" style="stroke:#181818;stroke-width:1.5;" width="132" x="369" y="639.2656"/><text fill="#000000" font-family="sans-serif" font-size="14" lengthAdjust="spacing" textLength="112" x="379" y="662.2607">The Code Editor</text><path d="M551,685.5625 L541,685.5625 C526,685.5625 526,657.4141 511,657.4141 L501,657.4141 " fill="none" style="stroke:#181818;stroke-width:1.0;"/><rect fill="#F1F1F1" height="36.2969" rx="12.5" ry="12.5" style="stroke:#181818;stroke-width:1.5;" width="99" x="402" y="695.5625"/><text fill="#000000" font-family="sans-serif" font-size="14" lengthAdjust="spacing" textLength="79" x="412" y="718.5576">The Web UI</text><path d="M551,685.5625 L541,685.5625 C526,685.5625 526,713.7109 511,713.7109 L501,713.7109 " fill="none" style="stroke:#181818;stroke-width:1.0;"/><path d="M774,1124.0859 L764,1124.0859 C749,1124.0859 749,685.5625 734,685.5625 L724,685.5625 " fill="none" style="stroke:#181818;stroke-width:1.0;"/><rect fill="#F1F1F1" height="36.2969" rx="12.5" ry="12.5" style="stroke:#181818;stroke-width:1.5;" width="177" x="547" y="880.75"/><a href="https://github.com/tmforum-rand/ig1353-api-developers-guide/blob/main/part3.adoc#rules-file-deep-dive" target="_top" title="https://github.com/tmforum-rand/ig1353-api-developers-guide/blob/main/part3.adoc#rules-file-deep-dive" xlink:actuate="onRequest" xlink:href="https://github.com/tmforum-rand/ig1353-api-developers-guide/blob/main/part3.adoc#rules-file-deep-dive" xlink:show="new" xlink:title="https://github.com/tmforum-rand/ig1353-api-developers-guide/blob/main/part3.adoc#rules-file-deep-dive" xlink:type="simple"><text fill="#0000FF" font-family="sans-serif" font-size="14" font-weight="bold" lengthAdjust="spacing" text-decoration="underline" textLength="157" x="557" y="903.7451">Rules file Deep Dive</text></a><rect fill="#F1F1F1" height="52.5938" rx="12.5" ry="12.5" style="stroke:#181818;stroke-width:1.5;" width="281" x="216" y="751.8594"/><text fill="#000000" font-family="sans-serif" font-size="14" lengthAdjust="spacing" textLength="100" x="226" y="774.8545">API Meta Data:</text><text fill="#000000" font-family="sans-serif" font-size="14" lengthAdjust="spacing" textLength="261" x="226" y="791.1514">Name, Description, Version, BasePath</text><path d="M547,898.8984 L537,898.8984 C522,898.8984 522,778.1563 507,778.1563 L497,778.1563 " fill="none" style="stroke:#181818;stroke-width:1.0;"/><rect fill="#F1F1F1" height="36.2969" rx="12.5" ry="12.5" style="stroke:#181818;stroke-width:1.5;" width="139" x="358" y="917.0469"/><text fill="#000000" font-family="sans-serif" font-size="14" lengthAdjust="spacing" textLength="119" x="368" y="940.042">List of Resources</text><rect fill="#F1F1F1" height="36.2969" rx="12.5" ry="12.5" style="stroke:#181818;stroke-width:1.5;" width="140" x="168" y="824.4531"/><text fill="#000000" font-family="sans-serif" font-size="14" lengthAdjust="spacing" textLength="120" x="178" y="847.4482">List of Operations</text><path d="M358,935.1953 L348,935.1953 C333,935.1953 333,842.6016 318,842.6016 L308,842.6016 " fill="none" style="stroke:#181818;stroke-width:1.0;"/><rect fill="#F1F1F1" height="52.5938" rx="12.5" ry="12.5" style="stroke:#181818;stroke-width:1.5;" width="171" x="137" y="880.75"/><text fill="#000000" font-family="sans-serif" font-size="14" lengthAdjust="spacing" textLength="151" x="147" y="903.7451">Excluded Parameters:</text><text fill="#000000" font-family="sans-serif" font-size="14" lengthAdjust="spacing" textLength="94" x="147" y="920.042">FVO and MVO</text><path d="M358,935.1953 L348,935.1953 C333,935.1953 333,907.0469 318,907.0469 L308,907.0469 " fill="none" style="stroke:#181818;stroke-width:1.0;"/><rect fill="#F1F1F1" height="36.2969" rx="12.5" ry="12.5" style="stroke:#181818;stroke-width:1.5;" width="111" x="197" y="953.3438"/><text fill="#000000" font-family="sans-serif" font-size="14" lengthAdjust="spacing" textLength="91" x="207" y="976.3389">List of Events</text><path d="M358,935.1953 L348,935.1953 C333,935.1953 333,971.4922 318,971.4922 L308,971.4922 " fill="none" style="stroke:#181818;stroke-width:1.0;"/><rect fill="#F1F1F1" height="36.2969" rx="12.5" ry="12.5" style="stroke:#181818;stroke-width:1.5;" width="130" x="178" y="1009.6406"/><text fill="#000000" font-family="sans-serif" font-size="14" lengthAdjust="spacing" textLength="110" x="188" y="1032.6357">List of Examples</text><path d="M358,935.1953 L348,935.1953 C333,935.1953 333,1027.7891 318,1027.7891 L308,1027.7891 " fill="none" style="stroke:#181818;stroke-width:1.0;"/><path d="M547,898.8984 L537,898.8984 C522,898.8984 522,935.1953 507,935.1953 L497,935.1953 " fill="none" style="stroke:#181818;stroke-width:1.0;"/><path d="M774,1124.0859 L764,1124.0859 C749,1124.0859 749,898.8984 734,898.8984 L724,898.8984 " fill="none" style="stroke:#181818;stroke-width:1.0;"/><rect fill="#F1F1F1" height="36.2969" rx="12.5" ry="12.5" style="stroke:#181818;stroke-width:1.5;" width="161" x="563" y="937.0469"/><text fill="#000000" font-family="sans-serif" font-size="14" lengthAdjust="spacing" textLength="141" x="573" y="960.042">Diagrams Deep Dive</text><path d="M774,1124.0859 L764,1124.0859 C749,1124.0859 749,955.1953 734,955.1953 L724,955.1953 " fill="none" style="stroke:#181818;stroke-width:1.0;"/><rect fill="#F1F1F1" height="36.2969" rx="12.5" ry="12.5" style="stroke:#181818;stroke-width:1.5;" width="173" x="551" y="1150.3828"/><text fill="#000000" font-family="sans-serif" font-size="14" lengthAdjust="spacing" textLength="153" x="561" y="1173.3779">User Guide Deep Dive</text><rect fill="#F1F1F1" height="36.2969" rx="12.5" ry="12.5" style="stroke:#181818;stroke-width:1.5;" width="183" x="318" y="1065.9375"/><text fill="#000000" font-family="sans-serif" font-size="14" lengthAdjust="spacing" textLength="163" x="328" y="1088.9326">Structure and Template</text><path d="M551,1168.5313 L541,1168.5313 C526,1168.5313 526,1084.0859 511,1084.0859 L501,1084.0859 " fill="none" style="stroke:#181818;stroke-width:1.0;"/><rect fill="#F1F1F1" height="36.2969" rx="12.5" ry="12.5" style="stroke:#181818;stroke-width:1.5;" width="290" x="211" y="1122.2344"/><text fill="#000000" font-family="sans-serif" font-size="14" lengthAdjust="spacing" textLength="270" x="221" y="1145.2295">Cover Page: Title, Version, Date, Status</text><path d="M551,1168.5313 L541,1168.5313 C526,1168.5313 526,1140.3828 511,1140.3828 L501,1140.3828 " fill="none" style="stroke:#181818;stroke-width:1.0;"/><rect fill="#F1F1F1" height="36.2969" rx="12.5" ry="12.5" style="stroke:#181818;stroke-width:1.5;" width="86" x="415" y="1178.5313"/><text fill="#000000" font-family="sans-serif" font-size="14" lengthAdjust="spacing" textLength="66" x="425" y="1201.5264">Examples</text><path d="M551,1168.5313 L541,1168.5313 C526,1168.5313 526,1196.6797 511,1196.6797 L501,1196.6797 " fill="none" style="stroke:#181818;stroke-width:1.0;"/><rect fill="#F1F1F1" height="36.2969" rx="12.5" ry="12.5" style="stroke:#181818;stroke-width:1.5;" width="226" x="275" y="1234.8281"/><text fill="#000000" font-family="sans-serif" font-size="14" lengthAdjust="spacing" textLength="206" x="285" y="1257.8232">Auxilliary Diagrams (Lifecycles)</text><path d="M551,1168.5313 L541,1168.5313 C526,1168.5313 526,1252.9766 511,1252.9766 L501,1252.9766 " fill="none" style="stroke:#181818;stroke-width:1.0;"/><path d="M774,1124.0859 L764,1124.0859 C749,1124.0859 749,1168.5313 734,1168.5313 L724,1168.5313 " fill="none" style="stroke:#181818;stroke-width:1.0;"/><rect fill="#F1F1F1" height="36.2969" rx="12.5" ry="12.5" style="stroke:#181818;stroke-width:1.5;" width="159" x="565" y="1206.6797"/><text fill="#000000" font-family="sans-serif" font-size="14" lengthAdjust="spacing" textLength="139" x="575" y="1229.6748">Conformance Profile</text><path d="M774,1124.0859 L764,1124.0859 C749,1124.0859 749,1224.8281 734,1224.8281 L724,1224.8281 " fill="none" style="stroke:#181818;stroke-width:1.0;"/><rect fill="#F1F1F1" height="36.2969" rx="12.5" ry="12.5" style="stroke:#181818;stroke-width:1.5;" width="134" x="590" y="1262.9766"/><text fill="#000000" font-family="sans-serif" font-size="14" lengthAdjust="spacing" textLength="114" x="600" y="1285.9717">Troubleshooting</text><path d="M774,1124.0859 L764,1124.0859 C749,1124.0859 749,1281.125 734,1281.125 L724,1281.125 " fill="none" style="stroke:#181818;stroke-width:1.0;"/><rect fill="#F1F1F1" height="36.2969" rx="12.5" ry="12.5" style="stroke:#181818;stroke-width:1.5;" width="179" x="545" y="1431.8672"/><text fill="#000000" font-family="sans-serif" font-size="14" lengthAdjust="spacing" textLength="159" x="555" y="1454.8623">Governance Checklists</text><rect fill="#F1F1F1" height="36.2969" rx="12.5" ry="12.5" style="stroke:#181818;stroke-width:1.5;" width="49" x="446" y="1375.5703"/><text fill="#000000" font-family="sans-serif" font-size="14" lengthAdjust="spacing" textLength="29" x="456" y="1398.5654">OAS</text><rect fill="#F1F1F1" height="36.2969" rx="12.5" ry="12.5" style="stroke:#181818;stroke-width:1.5;" width="344" x="52" y="1291.125"/><text fill="#000000" font-family="sans-serif" font-size="14" lengthAdjust="spacing" textLength="324" x="62" y="1314.1201">Name, Number, Version, BasePath, Description</text><path d="M446,1393.7188 L436,1393.7188 C421,1393.7188 421,1309.2734 406,1309.2734 L396,1309.2734 " fill="none" style="stroke:#181818;stroke-width:1.0;"/><rect fill="#F1F1F1" height="36.2969" rx="12.5" ry="12.5" style="stroke:#181818;stroke-width:1.5;" width="179" x="217" y="1347.4219"/><text fill="#000000" font-family="sans-serif" font-size="14" lengthAdjust="spacing" textLength="159" x="227" y="1370.417">Resources, Operations</text><path d="M446,1393.7188 L436,1393.7188 C421,1393.7188 421,1365.5703 406,1365.5703 L396,1365.5703 " fill="none" style="stroke:#181818;stroke-width:1.0;"/><rect fill="#F1F1F1" height="36.2969" rx="12.5" ry="12.5" style="stroke:#181818;stroke-width:1.5;" width="171" x="225" y="1403.7188"/><text fill="#000000" font-family="sans-serif" font-size="14" lengthAdjust="spacing" textLength="151" x="235" y="1426.7139">PATCH-able attributes</text><path d="M446,1393.7188 L436,1393.7188 C421,1393.7188 421,1421.8672 406,1421.8672 L396,1421.8672 " fill="none" style="stroke:#181818;stroke-width:1.0;"/><rect fill="#F1F1F1" height="36.2969" rx="12.5" ry="12.5" style="stroke:#181818;stroke-width:1.5;" width="67" x="329" y="1460.0156"/><text fill="#000000" font-family="sans-serif" font-size="14" lengthAdjust="spacing" textLength="47" x="339" y="1483.0107">Events</text><path d="M446,1393.7188 L436,1393.7188 C421,1393.7188 421,1478.1641 406,1478.1641 L396,1478.1641 " fill="none" style="stroke:#181818;stroke-width:1.0;"/><path d="M545,1450.0156 L535,1450.0156 C520,1450.0156 520,1393.7188 505,1393.7188 L495,1393.7188 " fill="none" style="stroke:#181818;stroke-width:1.0;"/><rect fill="#F1F1F1" height="36.2969" rx="12.5" ry="12.5" style="stroke:#181818;stroke-width:1.5;" width="97" x="398" y="1544.4609"/><text fill="#000000" font-family="sans-serif" font-size="14" lengthAdjust="spacing" textLength="77" x="408" y="1567.4561">User Guide</text><rect fill="#F1F1F1" height="36.2969" rx="12.5" ry="12.5" style="stroke:#181818;stroke-width:1.5;" width="338" x="10" y="1516.3125"/><text fill="#000000" font-family="sans-serif" font-size="14" lengthAdjust="spacing" textLength="318" x="20" y="1539.3076">Cover Page: Name, Title, Version, Date, Status</text><path d="M398,1562.6094 L388,1562.6094 C373,1562.6094 373,1534.4609 358,1534.4609 L348,1534.4609 " fill="none" style="stroke:#181818;stroke-width:1.0;"/><rect fill="#F1F1F1" height="36.2969" rx="12.5" ry="12.5" style="stroke:#181818;stroke-width:1.5;" width="177" x="171" y="1572.6094"/><text fill="#000000" font-family="sans-serif" font-size="14" lengthAdjust="spacing" textLength="157" x="181" y="1595.6045">Introduction: Template</text><path d="M398,1562.6094 L388,1562.6094 C373,1562.6094 373,1590.7578 358,1590.7578 L348,1590.7578 " fill="none" style="stroke:#181818;stroke-width:1.0;"/><path d="M545,1450.0156 L535,1450.0156 C520,1450.0156 520,1562.6094 505,1562.6094 L495,1562.6094 " fill="none" style="stroke:#181818;stroke-width:1.0;"/><path d="M774,1124.0859 L764,1124.0859 C749,1124.0859 749,1450.0156 734,1450.0156 L724,1450.0156 " fill="none" style="stroke:#181818;stroke-width:1.0;"/><path d="M896,814.4531 L886,814.4531 C871,814.4531 871,1124.0859 856,1124.0859 L846,1124.0859 " fill="none" style="stroke:#181818;stroke-width:1.0;"/><path d="M1059,898.8984 L1049,898.8984 C1034,898.8984 1034,814.4531 1019,814.4531 L1009,814.4531 " fill="none" style="stroke:#181818;stroke-width:1.0;"/><rect fill="#F1F1F1" height="68.8906" rx="12.5" ry="12.5" style="stroke:#181818;stroke-width:1.5;" width="113" x="896" y="1668.9063"/><text fill="#000000" font-family="sans-serif" font-size="14" font-weight="bold" lengthAdjust="spacing" textLength="47" x="906" y="1691.9014">Part 4</text><text fill="#000000" font-family="sans-serif" font-size="14" lengthAdjust="spacing" textLength="93" x="906" y="1708.1982">Advanced API</text><text fill="#000000" font-family="sans-serif" font-size="14" lengthAdjust="spacing" textLength="93" x="906" y="1724.4951">Development</text><rect fill="#F1F1F1" height="36.2969" rx="12.5" ry="12.5" style="stroke:#181818;stroke-width:1.5;" width="182" x="664" y="1628.9063"/><text fill="#000000" font-family="sans-serif" font-size="14" lengthAdjust="spacing" textLength="162" x="674" y="1651.9014">ASyncAPI Specifications</text><path d="M896,1703.3516 L886,1703.3516 C871,1703.3516 871,1647.0547 856,1647.0547 L846,1647.0547 " fill="none" style="stroke:#181818;stroke-width:1.0;"/><rect fill="#F1F1F1" height="36.2969" rx="12.5" ry="12.5" style="stroke:#181818;stroke-width:1.5;" width="180" x="666" y="1685.2031"/><text fill="#000000" font-family="sans-serif" font-size="14" lengthAdjust="spacing" textLength="160" x="676" y="1708.1982">How to Make a DCS API</text><rect fill="#F1F1F1" height="36.2969" rx="12.5" ry="12.5" style="stroke:#181818;stroke-width:1.5;" width="120" x="496" y="1685.2031"/><text fill="#000000" font-family="sans-serif" font-size="14" lengthAdjust="spacing" textLength="100" x="506" y="1708.1982">What is DCS ...</text><path d="M666,1703.3516 L656,1703.3516 C641,1703.3516 641,1703.3516 626,1703.3516 L616,1703.3516 " fill="none" style="stroke:#181818;stroke-width:1.0;"/><path d="M896,1703.3516 L886,1703.3516 C871,1703.3516 871,1703.3516 856,1703.3516 L846,1703.3516 " fill="none" style="stroke:#181818;stroke-width:1.0;"/><rect fill="#F1F1F1" height="36.2969" rx="12.5" ry="12.5" style="stroke:#181818;stroke-width:1.5;" width="225" x="621" y="1741.5"/><text fill="#000000" font-family="sans-serif" font-size="14" lengthAdjust="spacing" textLength="205" x="631" y="1764.4951">How to Make a Composite API</text><rect fill="#F1F1F1" height="36.2969" rx="12.5" ry="12.5" style="stroke:#181818;stroke-width:1.5;" width="312" x="259" y="1741.5"/><text fill="#000000" font-family="sans-serif" font-size="14" lengthAdjust="spacing" textLength="292" x="269" y="1764.4951">What is a Composite API/Component Suite</text><path d="M621,1759.6484 L611,1759.6484 C596,1759.6484 596,1759.6484 581,1759.6484 L571,1759.6484 " fill="none" style="stroke:#181818;stroke-width:1.0;"/><path d="M896,1703.3516 L886,1703.3516 C871,1703.3516 871,1759.6484 856,1759.6484 L846,1759.6484 " fill="none" style="stroke:#181818;stroke-width:1.0;"/><path d="M1059,898.8984 L1049,898.8984 C1034,898.8984 1034,1703.3516 1019,1703.3516 L1009,1703.3516 " fill="none" style="stroke:#181818;stroke-width:1.0;"/><!--SRC=[jLPDS-8u4BtxLwWobwJ0E5yxjKLDJGq1aY430nMJv11o47PZLB4bZoIJON_zTiiVa92jlUoUmEfMg_kzrorzCvPhcmaPPpptMa-VffhB19xPb-NN-UHQwI9ZlTbe8V5x01j8LPw1jExxfX0nB9LwyLejydzwMbkRcsuG9CAkYsKdKbbWinK5yJ5i78ZaxEAF2v_dme_BOA2Ddr2SO9cgPP1n8OCSCphhy5X5R8P_sTdpyvTW-NKXHr9OmTE5dCgbuZeMCi6ZMsocGSElGXXXmGGBUQDKpAnYFwHw9OSM2rzvae0EfhsGXJb4OYKYReMIXc5UpAw1tGt3EPNAy7WUYoHZvTOvscXv04OaahcYKo71bEQ9YBGoQcNPGyZwAePo6M9XbUwOyjoEK5Mm2jAHH5Gobm6RuAQKNN4ZeZ8c5QJY8h9j5eBUY0ZQx0wCAdG4bKEVMvwgfCscEWRTndWRP4NfRHq0STksovyxbOBdSBeMsbX_BZ9u3s4B3qY4iQ1nWM5ILQ8TfPE5h6dDjZoAL25jfsALp86kTbP7Xs0j1IbojiMKgPQLI9l4LPPpkMNXRDfdlJpNQiDJhqpXLWb9Ess5EEvCDCyessDYwLNf5sCryCoSi2fUBuh062BxHY1U-sfZc1oNuY-7SdEyNAK5o0WSxxUZkrvt8H_N7FS-hb55RVQzqWnw7yqXMajKIkeypL5ZwCNOCbYrnk0RsBUoEUR79W04GitdDO-8d62kL5eZtjhLnoPSyWIeiUgoiFmRjG4jkMn8x-beZGgFRA4TeTHpha7Eo_Qe-XCFM4ZE9BnIc0yNlVgC4KRFQtngq6kwI0HkxMUHBKj-tUUrIb5qRCoHNxjhaYEotHKf61HQ2aSxInYj8UCeiLmPqQYK3N_pB4Ttp_Fz_tf-NEpDZujwVbIjt21LJhAnKZbcu9Sia02dADj751kj-gxaOOxDsMLppQCNyg2rdZ5WwrOb29ttEybqc_bnXLknPKil52iR6LD0vL09mucoFmhwWxVkLrWzSeyE8KaEagtpd1LfYgZ-mZ3MeUYxOBkKw2_rHndbOFYn6v2W-IxvMSgblP-CsK1makQ1mxr1ujq8P0CL5GJWWG_r60qtQh9AJOS-yny7QtUZ87I2S6FqmEmgAvPfdVjUQTIp264L6WU46q3SnJ4vnmRocn0kzj1DvxtLHrYo-r4Pu7zHuYTDZU4J6BW1SZ-ckL5sYqDeW8i8-mQUdwkyI3GJi9mDSDZZbFh9CnnFU0r5MhYURRC7FDJzmTi3PjokgwrZ74rChPfRenJ0dc6QLzWsbk7lA2rYYAbby22SvmRFl7wOEgLD7gRlGmpfnZa8tFIqMwraP7RL7SheZSKdWHTkmhbpvu3HKF2LiKyZ4JDC0Dj6s1Js842Ky3Eqt1PLLc-JGK2Bto9D1TVRNMB7Ox62Q1kXrya_ohSIe5OeFp1hfKXVNjN9pPHc_JLWpmfJeq8DL-DJabSEqWzuUyDhlQTXh_q1NxFUlF_TvvWGuzPgiIpiZkPzRlR0hitxC9Q9_JkOFjuLjXaitHqprV1sa_QodBEzU4E0n0V3rZLhBzpAYCJzzY7MD3BUvHF-WcMnGJzqjvKxdYvf9enRx7Gw7xZJsu8k63ZSzCuOk2z9qoii11Nn3MHSluAzPWnkIZpOMUVyzFooStaSOhXUhjdfPtPssRsuw9wViljvdv7vn3k-cOrPoHcBwNL0hE3-4- -MR_3-mvSJlhswnAQy7Voe5zXGReHMqY5q-p3PENo-zA_mfg1N81BsCF46iE95Qd57fEZjriNJh_q_lJ4-sWl79qYlJqyqlKLR-3S0]--></g></svg>