<?xml version="1.0" encoding="us-ascii" standalone="no"?><svg xmlns="http://www.w3.org/2000/svg" xmlns:xlink="http://www.w3.org/1999/xlink" contentStyleType="text/css" height="1574px" preserveAspectRatio="none" style="width:2238px;height:1574px;background:#FFFFFF;" version="1.1" viewBox="0 0 2238 1574" width="2238px" zoomAndPan="magnify"><defs/><g><rect fill="#FFA500" height="68.8906" rx="12.5" ry="12.5" style="stroke:#181818;stroke-width:1.5;" width="127" x="1082" y="751.8594"/><text fill="#000000" font-family="sans-serif" font-size="14" font-weight="bold" lengthAdjust="spacing" textLength="107" x="1092" y="774.8545">TMForum API</text><text fill="#000000" font-family="sans-serif" font-size="14" font-weight="bold" lengthAdjust="spacing" textLength="105" x="1092" y="791.1514">Development</text><text fill="#000000" font-family="sans-serif" font-size="14" font-weight="bold" lengthAdjust="spacing" textLength="85" x="1092" y="807.4482">Guidebook</text><rect fill="#F1F1F1" height="68.8906" rx="12.5" ry="12.5" style="stroke:#181818;stroke-width:1.5;" width="104" x="1259" y="611.1172"/><text fill="#000000" font-family="sans-serif" font-size="14" font-weight="bold" lengthAdjust="spacing" textLength="50" x="1269" y="634.1123">Part 1</text><text fill="#000000" font-family="sans-serif" font-size="14" lengthAdjust="spacing" textLength="40" x="1269" y="650.4092">Initial</text><text fill="#000000" font-family="sans-serif" font-size="14" lengthAdjust="spacing" textLength="84" x="1269" y="666.7061">Onboarding</text><rect fill="#F1F1F1" height="52.5938" rx="12.5" ry="12.5" style="stroke:#181818;stroke-width:1.5;" width="121" x="1413" y="365.9297"/><text fill="#000000" font-family="sans-serif" font-size="14" lengthAdjust="spacing" textLength="99" x="1423" y="388.9248">Prerequisites/</text><text fill="#000000" font-family="sans-serif" font-size="14" lengthAdjust="spacing" textLength="101" x="1423" y="405.2217">Good to Know</text><rect fill="#F1F1F1" height="36.2969" rx="12.5" ry="12.5" style="stroke:#181818;stroke-width:1.5;" width="425" x="1584" y="233.3359"/><text fill="#000000" font-family="sans-serif" font-size="14" lengthAdjust="spacing" textLength="401" x="1594" y="256.3311">Swagger/OAS Specifications and the REST API paradigm</text><path d="M1534,392.2266 L1544,392.2266 C1559,392.2266 1559,251.4844 1574,251.4844 L1584,251.4844 " fill="none" style="stroke:#181818;stroke-width:1.0;"/><rect fill="#F1F1F1" height="36.2969" rx="12.5" ry="12.5" style="stroke:#181818;stroke-width:1.5;" width="205" x="1584" y="289.6328"/><text fill="#000000" font-family="sans-serif" font-size="14" lengthAdjust="spacing" textLength="185" x="1594" y="312.6279">The API Design Guidelines</text><path d="M1534,392.2266 L1544,392.2266 C1559,392.2266 1559,307.7813 1574,307.7813 L1584,307.7813 " fill="none" style="stroke:#181818;stroke-width:1.0;"/><rect fill="#F1F1F1" height="36.2969" rx="12.5" ry="12.5" style="stroke:#181818;stroke-width:1.5;" width="152" x="1584" y="345.9297"/><text fill="#000000" font-family="sans-serif" font-size="14" lengthAdjust="spacing" textLength="132" x="1594" y="368.9248">Microsoft VS Code</text><path d="M1534,392.2266 L1544,392.2266 C1559,392.2266 1559,364.0781 1574,364.0781 L1584,364.0781 " fill="none" style="stroke:#181818;stroke-width:1.0;"/><rect fill="#F1F1F1" height="36.2969" rx="12.5" ry="12.5" style="stroke:#181818;stroke-width:1.5;" width="146" x="1584" y="402.2266"/><text fill="#000000" font-family="sans-serif" font-size="14" lengthAdjust="spacing" textLength="126" x="1594" y="425.2217">editor.swagger.io</text><path d="M1534,392.2266 L1544,392.2266 C1559,392.2266 1559,420.375 1574,420.375 L1584,420.375 " fill="none" style="stroke:#181818;stroke-width:1.0;"/><rect fill="#F1F1F1" height="36.2969" rx="12.5" ry="12.5" style="stroke:#181818;stroke-width:1.5;" width="270" x="1584" y="458.5234"/><text fill="#000000" font-family="sans-serif" font-size="14" lengthAdjust="spacing" textLength="250" x="1594" y="481.5186">TMForum Information Model Basics</text><rect fill="#F1F1F1" height="36.2969" rx="12.5" ry="12.5" style="stroke:#181818;stroke-width:1.5;" width="211" x="1904" y="402.2266"/><text fill="#000000" font-family="sans-serif" font-size="14" lengthAdjust="spacing" textLength="191" x="1914" y="425.2217">Product, Service, Resource</text><path d="M1854,476.6719 L1864,476.6719 C1879,476.6719 1879,420.375 1894,420.375 L1904,420.375 " fill="none" style="stroke:#181818;stroke-width:1.0;"/><rect fill="#F1F1F1" height="36.2969" rx="12.5" ry="12.5" style="stroke:#181818;stroke-width:1.5;" width="201" x="1904" y="458.5234"/><text fill="#000000" font-family="sans-serif" font-size="14" lengthAdjust="spacing" textLength="181" x="1914" y="481.5186">Catalog, Order, Inventory</text><path d="M1854,476.6719 L1864,476.6719 C1879,476.6719 1879,476.6719 1894,476.6719 L1904,476.6719 " fill="none" style="stroke:#181818;stroke-width:1.0;"/><rect fill="#F1F1F1" height="36.2969" rx="12.5" ry="12.5" style="stroke:#181818;stroke-width:1.5;" width="136" x="1904" y="514.8203"/><text fill="#000000" font-family="sans-serif" font-size="14" lengthAdjust="spacing" textLength="116" x="1914" y="537.8154">Party, PartyRole</text><path d="M1854,476.6719 L1864,476.6719 C1879,476.6719 1879,532.9688 1894,532.9688 L1904,532.9688 " fill="none" style="stroke:#181818;stroke-width:1.0;"/><path d="M1534,392.2266 L1544,392.2266 C1559,392.2266 1559,476.6719 1574,476.6719 L1584,476.6719 " fill="none" style="stroke:#181818;stroke-width:1.0;"/><path d="M1363,645.5625 L1373,645.5625 C1388,645.5625 1388,392.2266 1403,392.2266 L1413,392.2266 " fill="none" style="stroke:#181818;stroke-width:1.0;"/><rect fill="#F1F1F1" height="52.5938" rx="12.5" ry="12.5" style="stroke:#181818;stroke-width:1.5;" width="104" x="1413" y="788.1563"/><text fill="#000000" font-family="sans-serif" font-size="14" lengthAdjust="spacing" textLength="74" x="1423" y="811.1514">First-Time</text><text fill="#000000" font-family="sans-serif" font-size="14" lengthAdjust="spacing" textLength="84" x="1423" y="827.4482">Onboarding</text><rect fill="#F1F1F1" height="52.5938" rx="12.5" ry="12.5" style="stroke:#181818;stroke-width:1.5;" width="314" x="1567" y="591.1172"/><text fill="#000000" font-family="sans-serif" font-size="14" lengthAdjust="spacing" textLength="204" x="1577" y="614.1123">Registering on TMForum.org</text><text fill="#000000" font-family="sans-serif" font-size="14" lengthAdjust="spacing" textLength="294" x="1577" y="630.4092">https://myaccount.tmforum.org/register</text><rect fill="#F1F1F1" height="36.2969" rx="12.5" ry="12.5" style="stroke:#181818;stroke-width:1.5;" width="182" x="1931" y="571.1172"/><text fill="#000000" font-family="sans-serif" font-size="14" lengthAdjust="spacing" textLength="162" x="1941" y="594.1123">Setting up your Profile</text><path d="M1881,617.4141 L1891,617.4141 C1906,617.4141 1906,589.2656 1921,589.2656 L1931,589.2656 " fill="none" style="stroke:#181818;stroke-width:1.0;"/><rect fill="#F1F1F1" height="36.2969" rx="12.5" ry="12.5" style="stroke:#181818;stroke-width:1.5;" width="200" x="1931" y="627.4141"/><text fill="#000000" font-family="sans-serif" font-size="14" lengthAdjust="spacing" textLength="180" x="1941" y="650.4092">Company SPOC Approval</text><path d="M1881,617.4141 L1891,617.4141 C1906,617.4141 1906,645.5625 1921,645.5625 L1931,645.5625 " fill="none" style="stroke:#181818;stroke-width:1.0;"/><path d="M1517,814.4531 L1527,814.4531 C1542,814.4531 1542,617.4141 1557,617.4141 L1567,617.4141 " fill="none" style="stroke:#181818;stroke-width:1.0;"/><rect fill="#F1F1F1" height="52.5938" rx="12.5" ry="12.5" style="stroke:#181818;stroke-width:1.5;" width="212" x="1567" y="731.8594"/><text fill="#000000" font-family="sans-serif" font-size="14" lengthAdjust="spacing" textLength="192" x="1577" y="754.8545">Joining the API Programme</text><text fill="#000000" font-family="sans-serif" font-size="14" lengthAdjust="spacing" textLength="133" x="1577" y="771.1514">(and workstreams)</text><rect fill="#F1F1F1" height="36.2969" rx="12.5" ry="12.5" style="stroke:#181818;stroke-width:1.5;" width="319" x="1829" y="683.7109"/><text fill="#000000" font-family="sans-serif" font-size="14" lengthAdjust="spacing" textLength="299" x="1839" y="706.7061">Access to Git, tmforum-rand organization</text><path d="M1779,758.1563 L1789,758.1563 C1804,758.1563 1804,701.8594 1819,701.8594 L1829,701.8594 " fill="none" style="stroke:#181818;stroke-width:1.0;"/><rect fill="#F1F1F1" height="52.5938" rx="12.5" ry="12.5" style="stroke:#181818;stroke-width:1.5;" width="168" x="1829" y="760.0078"/><text fill="#000000" font-family="sans-serif" font-size="14" lengthAdjust="spacing" textLength="148" x="1839" y="783.0029">Confluence and JIRA:</text><text fill="#000000" font-family="sans-serif" font-size="14" lengthAdjust="spacing" textLength="131" x="1839" y="799.2998">What, Where, How</text><rect fill="#F1F1F1" height="36.2969" rx="12.5" ry="12.5" style="stroke:#181818;stroke-width:1.5;" width="141" x="2047" y="740.0078"/><text fill="#000000" font-family="sans-serif" font-size="14" lengthAdjust="spacing" textLength="121" x="2057" y="763.0029">"Technical JIRAs"</text><path d="M1997,786.3047 L2007,786.3047 C2022,786.3047 2022,758.1563 2037,758.1563 L2047,758.1563 " fill="none" style="stroke:#181818;stroke-width:1.0;"/><rect fill="#F1F1F1" height="36.2969" rx="12.5" ry="12.5" style="stroke:#181818;stroke-width:1.5;" width="179" x="2047" y="796.3047"/><text fill="#000000" font-family="sans-serif" font-size="14" lengthAdjust="spacing" textLength="159" x="2057" y="819.2998">"Administrative JIRAs"</text><path d="M1997,786.3047 L2007,786.3047 C2022,786.3047 2022,814.4531 2037,814.4531 L2047,814.4531 " fill="none" style="stroke:#181818;stroke-width:1.0;"/><path d="M1779,758.1563 L1789,758.1563 C1804,758.1563 1804,786.3047 1819,786.3047 L1829,786.3047 " fill="none" style="stroke:#181818;stroke-width:1.0;"/><path d="M1517,814.4531 L1527,814.4531 C1542,814.4531 1542,758.1563 1557,758.1563 L1567,758.1563 " fill="none" style="stroke:#181818;stroke-width:1.0;"/><rect fill="#F1F1F1" height="36.2969" rx="12.5" ry="12.5" style="stroke:#181818;stroke-width:1.5;" width="130" x="1567" y="937.0469"/><text fill="#000000" font-family="sans-serif" font-size="14" lengthAdjust="spacing" textLength="110" x="1577" y="960.042">Team Meetings</text><rect fill="#F1F1F1" height="36.2969" rx="12.5" ry="12.5" style="stroke:#181818;stroke-width:1.5;" width="132" x="1747" y="852.6016"/><text fill="#000000" font-family="sans-serif" font-size="14" lengthAdjust="spacing" textLength="112" x="1757" y="875.5967">Factory/Tooling</text><path d="M1697,955.1953 L1707,955.1953 C1722,955.1953 1722,870.75 1737,870.75 L1747,870.75 " fill="none" style="stroke:#181818;stroke-width:1.0;"/><rect fill="#F1F1F1" height="36.2969" rx="12.5" ry="12.5" style="stroke:#181818;stroke-width:1.5;" width="202" x="1747" y="908.8984"/><text fill="#000000" font-family="sans-serif" font-size="14" lengthAdjust="spacing" textLength="182" x="1757" y="931.8936">Programme Management</text><path d="M1697,955.1953 L1707,955.1953 C1722,955.1953 1722,927.0469 1737,927.0469 L1747,927.0469 " fill="none" style="stroke:#181818;stroke-width:1.0;"/><rect fill="#F1F1F1" height="36.2969" rx="12.5" ry="12.5" style="stroke:#181818;stroke-width:1.5;" width="133" x="1747" y="965.1953"/><text fill="#000000" font-family="sans-serif" font-size="14" lengthAdjust="spacing" textLength="113" x="1757" y="988.1904">API Governance</text><path d="M1697,955.1953 L1707,955.1953 C1722,955.1953 1722,983.3438 1737,983.3438 L1747,983.3438 " fill="none" style="stroke:#181818;stroke-width:1.0;"/><rect fill="#F1F1F1" height="36.2969" rx="12.5" ry="12.5" style="stroke:#181818;stroke-width:1.5;" width="111" x="1747" y="1021.4922"/><text fill="#000000" font-family="sans-serif" font-size="14" lengthAdjust="spacing" textLength="91" x="1757" y="1044.4873">Architecture</text><path d="M1697,955.1953 L1707,955.1953 C1722,955.1953 1722,1039.6406 1737,1039.6406 L1747,1039.6406 " fill="none" style="stroke:#181818;stroke-width:1.0;"/><path d="M1517,814.4531 L1527,814.4531 C1542,814.4531 1542,955.1953 1557,955.1953 L1567,955.1953 " fill="none" style="stroke:#181818;stroke-width:1.0;"/><path d="M1363,645.5625 L1373,645.5625 C1388,645.5625 1388,814.4531 1403,814.4531 L1413,814.4531 " fill="none" style="stroke:#181818;stroke-width:1.0;"/><path d="M1209,786.3047 L1219,786.3047 C1234,786.3047 1234,645.5625 1249,645.5625 L1259,645.5625 " fill="none" style="stroke:#181818;stroke-width:1.0;"/><rect fill="#F1F1F1" height="68.8906" rx="12.5" ry="12.5" style="stroke:#181818;stroke-width:1.5;" width="102" x="1259" y="1174.0859"/><text fill="#000000" font-family="sans-serif" font-size="14" font-weight="bold" lengthAdjust="spacing" textLength="50" x="1269" y="1197.0811">Part 2</text><text fill="#000000" font-family="sans-serif" font-size="14" lengthAdjust="spacing" textLength="82" x="1269" y="1213.3779">Developing</text><text fill="#000000" font-family="sans-serif" font-size="14" lengthAdjust="spacing" textLength="68" x="1269" y="1229.6748">a new API</text><rect fill="#F1F1F1" height="36.2969" rx="12.5" ry="12.5" style="stroke:#181818;stroke-width:1.5;" width="116" x="1411" y="1077.7891"/><text fill="#000000" font-family="sans-serif" font-size="14" lengthAdjust="spacing" textLength="96" x="1421" y="1100.7842">API Inception</text><path d="M1361,1208.5313 L1371,1208.5313 C1386,1208.5313 1386,1095.9375 1401,1095.9375 L1411,1095.9375 " fill="none" style="stroke:#181818;stroke-width:1.0;"/><rect fill="#F1F1F1" height="36.2969" rx="12.5" ry="12.5" style="stroke:#181818;stroke-width:1.5;" width="94" x="1411" y="1134.0859"/><text fill="#000000" font-family="sans-serif" font-size="14" lengthAdjust="spacing" textLength="74" x="1421" y="1157.0811">API Profile</text><path d="M1361,1208.5313 L1371,1208.5313 C1386,1208.5313 1386,1152.2344 1401,1152.2344 L1411,1152.2344 " fill="none" style="stroke:#181818;stroke-width:1.0;"/><rect fill="#F1F1F1" height="36.2969" rx="12.5" ry="12.5" style="stroke:#181818;stroke-width:1.5;" width="137" x="1411" y="1190.3828"/><text fill="#000000" font-family="sans-serif" font-size="14" lengthAdjust="spacing" textLength="117" x="1421" y="1213.3779">TMF API Number</text><path d="M1361,1208.5313 L1371,1208.5313 C1386,1208.5313 1386,1208.5313 1401,1208.5313 L1411,1208.5313 " fill="none" style="stroke:#181818;stroke-width:1.0;"/><rect fill="#F1F1F1" height="36.2969" rx="12.5" ry="12.5" style="stroke:#181818;stroke-width:1.5;" width="144" x="1411" y="1246.6797"/><text fill="#000000" font-family="sans-serif" font-size="14" lengthAdjust="spacing" textLength="124" x="1421" y="1269.6748">API Folder Layout</text><rect fill="#F1F1F1" height="36.2969" rx="12.5" ry="12.5" style="stroke:#181818;stroke-width:1.5;" width="159" x="1605" y="1190.3828"/><text fill="#000000" font-family="sans-serif" font-size="14" lengthAdjust="spacing" textLength="139" x="1615" y="1213.3779">The "API Rules File"</text><path d="M1555,1264.8281 L1565,1264.8281 C1580,1264.8281 1580,1208.5313 1595,1208.5313 L1605,1208.5313 " fill="none" style="stroke:#181818;stroke-width:1.0;"/><rect fill="#F1F1F1" height="36.2969" rx="12.5" ry="12.5" style="stroke:#181818;stroke-width:1.5;" width="191" x="1605" y="1246.6797"/><text fill="#000000" font-family="sans-serif" font-size="14" lengthAdjust="spacing" textLength="171" x="1615" y="1269.6748">The Schema Repository</text><path d="M1555,1264.8281 L1565,1264.8281 C1580,1264.8281 1580,1264.8281 1595,1264.8281 L1605,1264.8281 " fill="none" style="stroke:#181818;stroke-width:1.0;"/><rect fill="#F1F1F1" height="36.2969" rx="12.5" ry="12.5" style="stroke:#181818;stroke-width:1.5;" width="89" x="1605" y="1302.9766"/><text fill="#000000" font-family="sans-serif" font-size="14" lengthAdjust="spacing" textLength="69" x="1615" y="1325.9717">Examples</text><path d="M1555,1264.8281 L1565,1264.8281 C1580,1264.8281 1580,1321.125 1595,1321.125 L1605,1321.125 " fill="none" style="stroke:#181818;stroke-width:1.0;"/><path d="M1361,1208.5313 L1371,1208.5313 C1386,1208.5313 1386,1264.8281 1401,1264.8281 L1411,1264.8281 " fill="none" style="stroke:#181818;stroke-width:1.0;"/><path d="M1209,786.3047 L1219,786.3047 C1234,786.3047 1234,1208.5313 1249,1208.5313 L1259,1208.5313 " fill="none" style="stroke:#181818;stroke-width:1.0;"/><rect fill="#F1F1F1" height="85.1875" rx="12.5" ry="12.5" style="stroke:#181818;stroke-width:1.5;" width="119" x="913" y="659.2656"/><text fill="#000000" font-family="sans-serif" font-size="14" font-weight="bold" lengthAdjust="spacing" textLength="50" x="923" y="682.2607">Part 3</text><text fill="#000000" font-family="sans-serif" font-size="14" lengthAdjust="spacing" textLength="54" x="923" y="698.5576">The API</text><text fill="#000000" font-family="sans-serif" font-size="14" lengthAdjust="spacing" textLength="99" x="923" y="714.8545">Development</text><text fill="#000000" font-family="sans-serif" font-size="14" lengthAdjust="spacing" textLength="36" x="923" y="731.1514">Loop</text><rect fill="#F1F1F1" height="36.2969" rx="12.5" ry="12.5" style="stroke:#181818;stroke-width:1.5;" width="583" x="280" y="20"/><text fill="#000000" font-family="sans-serif" font-size="14" lengthAdjust="spacing" textLength="563" x="290" y="42.9951">An Aside: Epics, Documents, Technical JIRAs, Git Issues and Branching Strategy</text><path d="M913,701.8594 L903,701.8594 C888,701.8594 888,38.1484 873,38.1484 L863,38.1484 " fill="none" style="stroke:#181818;stroke-width:1.0;"/><rect fill="#F1F1F1" height="36.2969" rx="12.5" ry="12.5" style="stroke:#181818;stroke-width:1.5;" width="85" x="778" y="217.0391"/><text fill="#000000" font-family="sans-serif" font-size="14" lengthAdjust="spacing" textLength="65" x="788" y="240.0342">API Tools</text><rect fill="#F1F1F1" height="36.2969" rx="12.5" ry="12.5" style="stroke:#181818;stroke-width:1.5;" width="227" x="501" y="76.2969"/><text fill="#000000" font-family="sans-serif" font-size="14" lengthAdjust="spacing" textLength="207" x="511" y="99.292">OAS Specification Generator</text><path d="M778,235.1875 L768,235.1875 C753,235.1875 753,94.4453 738,94.4453 L728,94.4453 " fill="none" style="stroke:#181818;stroke-width:1.0;"/><rect fill="#F1F1F1" height="36.2969" rx="12.5" ry="12.5" style="stroke:#181818;stroke-width:1.5;" width="228" x="500" y="132.5938"/><text fill="#000000" font-family="sans-serif" font-size="14" lengthAdjust="spacing" textLength="208" x="510" y="155.5889">PlantUML Diagram Generator</text><path d="M778,235.1875 L768,235.1875 C753,235.1875 753,150.7422 738,150.7422 L728,150.7422 " fill="none" style="stroke:#181818;stroke-width:1.0;"/><rect fill="#F1F1F1" height="36.2969" rx="12.5" ry="12.5" style="stroke:#181818;stroke-width:1.5;" width="253" x="475" y="188.8906"/><text fill="#000000" font-family="sans-serif" font-size="14" lengthAdjust="spacing" textLength="233" x="485" y="211.8857">User Guide Document Generator</text><path d="M778,235.1875 L768,235.1875 C753,235.1875 753,207.0391 738,207.0391 L728,207.0391 " fill="none" style="stroke:#181818;stroke-width:1.0;"/><rect fill="#F1F1F1" height="36.2969" rx="12.5" ry="12.5" style="stroke:#181818;stroke-width:1.5;" width="246" x="482" y="245.1875"/><text fill="#000000" font-family="sans-serif" font-size="14" lengthAdjust="spacing" textLength="226" x="492" y="268.1826">Conformance Profile Generator</text><path d="M778,235.1875 L768,235.1875 C753,235.1875 753,263.3359 738,263.3359 L728,263.3359 " fill="none" style="stroke:#181818;stroke-width:1.0;"/><rect fill="#F1F1F1" height="36.2969" rx="12.5" ry="12.5" style="stroke:#181818;stroke-width:1.5;" width="134" x="594" y="301.4844"/><text fill="#000000" font-family="sans-serif" font-size="14" lengthAdjust="spacing" textLength="114" x="604" y="324.4795">CTK Generation</text><path d="M778,235.1875 L768,235.1875 C753,235.1875 753,319.6328 738,319.6328 L728,319.6328 " fill="none" style="stroke:#181818;stroke-width:1.0;"/><rect fill="#F1F1F1" height="36.2969" rx="12.5" ry="12.5" style="stroke:#181818;stroke-width:1.5;" width="219" x="509" y="357.7813"/><text fill="#000000" font-family="sans-serif" font-size="14" lengthAdjust="spacing" textLength="199" x="519" y="380.7764">RI/Sample Code Generation</text><path d="M778,235.1875 L768,235.1875 C753,235.1875 753,375.9297 738,375.9297 L728,375.9297 " fill="none" style="stroke:#181818;stroke-width:1.0;"/><path d="M913,701.8594 L903,701.8594 C888,701.8594 888,235.1875 873,235.1875 L863,235.1875 " fill="none" style="stroke:#181818;stroke-width:1.0;"/><rect fill="#F1F1F1" height="36.2969" rx="12.5" ry="12.5" style="stroke:#181818;stroke-width:1.5;" width="72" x="791" y="880.75"/><text fill="#000000" font-family="sans-serif" font-size="14" lengthAdjust="spacing" textLength="52" x="801" y="903.7451">How To</text><rect fill="#F1F1F1" height="36.2969" rx="12.5" ry="12.5" style="stroke:#181818;stroke-width:1.5;" width="177" x="564" y="442.2266"/><text fill="#000000" font-family="sans-serif" font-size="14" lengthAdjust="spacing" textLength="157" x="574" y="465.2217">Creating a Codespace</text><rect fill="#F1F1F1" height="36.2969" rx="12.5" ry="12.5" style="stroke:#181818;stroke-width:1.5;" width="95" x="419" y="414.0781"/><text fill="#000000" font-family="sans-serif" font-size="14" lengthAdjust="spacing" textLength="75" x="429" y="437.0732">The Editor</text><path d="M564,460.375 L554,460.375 C539,460.375 539,432.2266 524,432.2266 L514,432.2266 " fill="none" style="stroke:#181818;stroke-width:1.0;"/><rect fill="#F1F1F1" height="36.2969" rx="12.5" ry="12.5" style="stroke:#181818;stroke-width:1.5;" width="101" x="413" y="470.375"/><text fill="#000000" font-family="sans-serif" font-size="14" lengthAdjust="spacing" textLength="81" x="423" y="493.3701">The Web UI</text><path d="M564,460.375 L554,460.375 C539,460.375 539,488.5234 524,488.5234 L514,488.5234 " fill="none" style="stroke:#181818;stroke-width:1.0;"/><path d="M791,898.8984 L781,898.8984 C766,898.8984 766,460.375 751,460.375 L741,460.375 " fill="none" style="stroke:#181818;stroke-width:1.0;"/><rect fill="#F1F1F1" height="36.2969" rx="12.5" ry="12.5" style="stroke:#181818;stroke-width:1.5;" width="164" x="577" y="655.5625"/><text fill="#000000" font-family="sans-serif" font-size="14" lengthAdjust="spacing" textLength="144" x="587" y="678.5576">Rules file Deep Dive</text><rect fill="#F1F1F1" height="52.5938" rx="12.5" ry="12.5" style="stroke:#181818;stroke-width:1.5;" width="290" x="237" y="526.6719"/><text fill="#000000" font-family="sans-serif" font-size="14" lengthAdjust="spacing" textLength="106" x="247" y="549.667">API Meta Data:</text><text fill="#000000" font-family="sans-serif" font-size="14" lengthAdjust="spacing" textLength="270" x="247" y="565.9639">Name, Description, Version, BasePath</text><path d="M577,673.7109 L567,673.7109 C552,673.7109 552,552.9688 537,552.9688 L527,552.9688 " fill="none" style="stroke:#181818;stroke-width:1.0;"/><rect fill="#F1F1F1" height="36.2969" rx="12.5" ry="12.5" style="stroke:#181818;stroke-width:1.5;" width="142" x="385" y="691.8594"/><text fill="#000000" font-family="sans-serif" font-size="14" lengthAdjust="spacing" textLength="122" x="395" y="714.8545">List of Resources</text><rect fill="#F1F1F1" height="36.2969" rx="12.5" ry="12.5" style="stroke:#181818;stroke-width:1.5;" width="149" x="186" y="599.2656"/><text fill="#000000" font-family="sans-serif" font-size="14" lengthAdjust="spacing" textLength="129" x="196" y="622.2607">List of Operations</text><path d="M385,710.0078 L375,710.0078 C360,710.0078 360,617.4141 345,617.4141 L335,617.4141 " fill="none" style="stroke:#181818;stroke-width:1.0;"/><rect fill="#F1F1F1" height="52.5938" rx="12.5" ry="12.5" style="stroke:#181818;stroke-width:1.5;" width="176" x="159" y="655.5625"/><text fill="#000000" font-family="sans-serif" font-size="14" lengthAdjust="spacing" textLength="156" x="169" y="678.5576">Excluded Parameters:</text><text fill="#000000" font-family="sans-serif" font-size="14" lengthAdjust="spacing" textLength="96" x="169" y="694.8545">FVO and MVO</text><path d="M385,710.0078 L375,710.0078 C360,710.0078 360,681.8594 345,681.8594 L335,681.8594 " fill="none" style="stroke:#181818;stroke-width:1.0;"/><rect fill="#F1F1F1" height="36.2969" rx="12.5" ry="12.5" style="stroke:#181818;stroke-width:1.5;" width="118" x="217" y="728.1563"/><text fill="#000000" font-family="sans-serif" font-size="14" lengthAdjust="spacing" textLength="98" x="227" y="751.1514">List of Events</text><path d="M385,710.0078 L375,710.0078 C360,710.0078 360,746.3047 345,746.3047 L335,746.3047 " fill="none" style="stroke:#181818;stroke-width:1.0;"/><rect fill="#F1F1F1" height="36.2969" rx="12.5" ry="12.5" style="stroke:#181818;stroke-width:1.5;" width="138" x="197" y="784.4531"/><text fill="#000000" font-family="sans-serif" font-size="14" lengthAdjust="spacing" textLength="118" x="207" y="807.4482">List of Examples</text><path d="M385,710.0078 L375,710.0078 C360,710.0078 360,802.6016 345,802.6016 L335,802.6016 " fill="none" style="stroke:#181818;stroke-width:1.0;"/><path d="M577,673.7109 L567,673.7109 C552,673.7109 552,710.0078 537,710.0078 L527,710.0078 " fill="none" style="stroke:#181818;stroke-width:1.0;"/><path d="M791,898.8984 L781,898.8984 C766,898.8984 766,673.7109 751,673.7109 L741,673.7109 " fill="none" style="stroke:#181818;stroke-width:1.0;"/><rect fill="#F1F1F1" height="36.2969" rx="12.5" ry="12.5" style="stroke:#181818;stroke-width:1.5;" width="166" x="575" y="711.8594"/><text fill="#000000" font-family="sans-serif" font-size="14" lengthAdjust="spacing" textLength="146" x="585" y="734.8545">Diagrams Deep Dive</text><path d="M791,898.8984 L781,898.8984 C766,898.8984 766,730.0078 751,730.0078 L741,730.0078 " fill="none" style="stroke:#181818;stroke-width:1.0;"/><rect fill="#F1F1F1" height="36.2969" rx="12.5" ry="12.5" style="stroke:#181818;stroke-width:1.5;" width="175" x="566" y="925.1953"/><text fill="#000000" font-family="sans-serif" font-size="14" lengthAdjust="spacing" textLength="155" x="576" y="948.1904">User Guide Deep Dive</text><rect fill="#F1F1F1" height="36.2969" rx="12.5" ry="12.5" style="stroke:#181818;stroke-width:1.5;" width="192" x="324" y="840.75"/><text fill="#000000" font-family="sans-serif" font-size="14" lengthAdjust="spacing" textLength="172" x="334" y="863.7451">Structure and Template</text><path d="M566,943.3438 L556,943.3438 C541,943.3438 541,858.8984 526,858.8984 L516,858.8984 " fill="none" style="stroke:#181818;stroke-width:1.0;"/><rect fill="#F1F1F1" height="36.2969" rx="12.5" ry="12.5" style="stroke:#181818;stroke-width:1.5;" width="302" x="214" y="897.0469"/><text fill="#000000" font-family="sans-serif" font-size="14" lengthAdjust="spacing" textLength="282" x="224" y="920.042">Cover Page: Title, Version, Date, Status</text><path d="M566,943.3438 L556,943.3438 C541,943.3438 541,915.1953 526,915.1953 L516,915.1953 " fill="none" style="stroke:#181818;stroke-width:1.0;"/><rect fill="#F1F1F1" height="36.2969" rx="12.5" ry="12.5" style="stroke:#181818;stroke-width:1.5;" width="89" x="427" y="953.3438"/><text fill="#000000" font-family="sans-serif" font-size="14" lengthAdjust="spacing" textLength="69" x="437" y="976.3389">Examples</text><path d="M566,943.3438 L556,943.3438 C541,943.3438 541,971.4922 526,971.4922 L516,971.4922 " fill="none" style="stroke:#181818;stroke-width:1.0;"/><rect fill="#F1F1F1" height="36.2969" rx="12.5" ry="12.5" style="stroke:#181818;stroke-width:1.5;" width="240" x="276" y="1009.6406"/><text fill="#000000" font-family="sans-serif" font-size="14" lengthAdjust="spacing" textLength="220" x="286" y="1032.6357">Auxilliary Diagrams (Lifecycles)</text><path d="M566,943.3438 L556,943.3438 C541,943.3438 541,1027.7891 526,1027.7891 L516,1027.7891 " fill="none" style="stroke:#181818;stroke-width:1.0;"/><path d="M791,898.8984 L781,898.8984 C766,898.8984 766,943.3438 751,943.3438 L741,943.3438 " fill="none" style="stroke:#181818;stroke-width:1.0;"/><rect fill="#F1F1F1" height="36.2969" rx="12.5" ry="12.5" style="stroke:#181818;stroke-width:1.5;" width="138" x="603" y="981.4922"/><text fill="#000000" font-family="sans-serif" font-size="14" lengthAdjust="spacing" textLength="118" x="613" y="1004.4873">Troubleshooting</text><path d="M791,898.8984 L781,898.8984 C766,898.8984 766,999.6406 751,999.6406 L741,999.6406 " fill="none" style="stroke:#181818;stroke-width:1.0;"/><rect fill="#F1F1F1" height="36.2969" rx="12.5" ry="12.5" style="stroke:#181818;stroke-width:1.5;" width="184" x="557" y="1206.6797"/><text fill="#000000" font-family="sans-serif" font-size="14" lengthAdjust="spacing" textLength="164" x="567" y="1229.6748">Governance Checklists</text><rect fill="#F1F1F1" height="36.2969" rx="12.5" ry="12.5" style="stroke:#181818;stroke-width:1.5;" width="50" x="457" y="1150.3828"/><text fill="#000000" font-family="sans-serif" font-size="14" lengthAdjust="spacing" textLength="30" x="467" y="1173.3779">OAS</text><rect fill="#F1F1F1" height="36.2969" rx="12.5" ry="12.5" style="stroke:#181818;stroke-width:1.5;" width="355" x="52" y="1065.9375"/><text fill="#000000" font-family="sans-serif" font-size="14" lengthAdjust="spacing" textLength="335" x="62" y="1088.9326">Name, Number, Version, BasePath, Description</text><path d="M457,1168.5313 L447,1168.5313 C432,1168.5313 432,1084.0859 417,1084.0859 L407,1084.0859 " fill="none" style="stroke:#181818;stroke-width:1.0;"/><rect fill="#F1F1F1" height="36.2969" rx="12.5" ry="12.5" style="stroke:#181818;stroke-width:1.5;" width="181" x="226" y="1122.2344"/><text fill="#000000" font-family="sans-serif" font-size="14" lengthAdjust="spacing" textLength="161" x="236" y="1145.2295">Resources, Operations</text><path d="M457,1168.5313 L447,1168.5313 C432,1168.5313 432,1140.3828 417,1140.3828 L407,1140.3828 " fill="none" style="stroke:#181818;stroke-width:1.0;"/><rect fill="#F1F1F1" height="36.2969" rx="12.5" ry="12.5" style="stroke:#181818;stroke-width:1.5;" width="182" x="225" y="1178.5313"/><text fill="#000000" font-family="sans-serif" font-size="14" lengthAdjust="spacing" textLength="162" x="235" y="1201.5264">PATCH-able attributes</text><path d="M457,1168.5313 L447,1168.5313 C432,1168.5313 432,1196.6797 417,1196.6797 L407,1196.6797 " fill="none" style="stroke:#181818;stroke-width:1.0;"/><rect fill="#F1F1F1" height="36.2969" rx="12.5" ry="12.5" style="stroke:#181818;stroke-width:1.5;" width="69" x="338" y="1234.8281"/><text fill="#000000" font-family="sans-serif" font-size="14" lengthAdjust="spacing" textLength="49" x="348" y="1257.8232">Events</text><path d="M457,1168.5313 L447,1168.5313 C432,1168.5313 432,1252.9766 417,1252.9766 L407,1252.9766 " fill="none" style="stroke:#181818;stroke-width:1.0;"/><path d="M557,1224.8281 L547,1224.8281 C532,1224.8281 532,1168.5313 517,1168.5313 L507,1168.5313 " fill="none" style="stroke:#181818;stroke-width:1.0;"/><rect fill="#F1F1F1" height="36.2969" rx="12.5" ry="12.5" style="stroke:#181818;stroke-width:1.5;" width="96" x="411" y="1319.2734"/><text fill="#000000" font-family="sans-serif" font-size="14" lengthAdjust="spacing" textLength="76" x="421" y="1342.2686">User Guide</text><rect fill="#F1F1F1" height="36.2969" rx="12.5" ry="12.5" style="stroke:#181818;stroke-width:1.5;" width="351" x="10" y="1291.125"/><text fill="#000000" font-family="sans-serif" font-size="14" lengthAdjust="spacing" textLength="331" x="20" y="1314.1201">Cover Page: Name, Title, Version, Date, Status</text><path d="M411,1337.4219 L401,1337.4219 C386,1337.4219 386,1309.2734 371,1309.2734 L361,1309.2734 " fill="none" style="stroke:#181818;stroke-width:1.0;"/><rect fill="#F1F1F1" height="36.2969" rx="12.5" ry="12.5" style="stroke:#181818;stroke-width:1.5;" width="188" x="173" y="1347.4219"/><text fill="#000000" font-family="sans-serif" font-size="14" lengthAdjust="spacing" textLength="168" x="183" y="1370.417">Introduction: Template</text><path d="M411,1337.4219 L401,1337.4219 C386,1337.4219 386,1365.5703 371,1365.5703 L361,1365.5703 " fill="none" style="stroke:#181818;stroke-width:1.0;"/><path d="M557,1224.8281 L547,1224.8281 C532,1224.8281 532,1337.4219 517,1337.4219 L507,1337.4219 " fill="none" style="stroke:#181818;stroke-width:1.0;"/><path d="M791,898.8984 L781,898.8984 C766,898.8984 766,1224.8281 751,1224.8281 L741,1224.8281 " fill="none" style="stroke:#181818;stroke-width:1.0;"/><path d="M913,701.8594 L903,701.8594 C888,701.8594 888,898.8984 873,898.8984 L863,898.8984 " fill="none" style="stroke:#181818;stroke-width:1.0;"/><path d="M1082,786.3047 L1072,786.3047 C1057,786.3047 1057,701.8594 1042,701.8594 L1032,701.8594 " fill="none" style="stroke:#181818;stroke-width:1.0;"/><rect fill="#F1F1F1" height="68.8906" rx="12.5" ry="12.5" style="stroke:#181818;stroke-width:1.5;" width="119" x="913" y="1443.7188"/><text fill="#000000" font-family="sans-serif" font-size="14" font-weight="bold" lengthAdjust="spacing" textLength="50" x="923" y="1466.7139">Part 4</text><text fill="#000000" font-family="sans-serif" font-size="14" lengthAdjust="spacing" textLength="97" x="923" y="1483.0107">Advanced API</text><text fill="#000000" font-family="sans-serif" font-size="14" lengthAdjust="spacing" textLength="99" x="923" y="1499.3076">Development</text><rect fill="#F1F1F1" height="36.2969" rx="12.5" ry="12.5" style="stroke:#181818;stroke-width:1.5;" width="193" x="670" y="1403.7188"/><text fill="#000000" font-family="sans-serif" font-size="14" lengthAdjust="spacing" textLength="173" x="680" y="1426.7139">ASyncAPI Specifications</text><path d="M913,1478.1641 L903,1478.1641 C888,1478.1641 888,1421.8672 873,1421.8672 L863,1421.8672 " fill="none" style="stroke:#181818;stroke-width:1.0;"/><rect fill="#F1F1F1" height="36.2969" rx="12.5" ry="12.5" style="stroke:#181818;stroke-width:1.5;" width="185" x="678" y="1460.0156"/><text fill="#000000" font-family="sans-serif" font-size="14" lengthAdjust="spacing" textLength="165" x="688" y="1483.0107">How to Make a DCS API</text><rect fill="#F1F1F1" height="36.2969" rx="12.5" ry="12.5" style="stroke:#181818;stroke-width:1.5;" width="126" x="502" y="1460.0156"/><text fill="#000000" font-family="sans-serif" font-size="14" lengthAdjust="spacing" textLength="106" x="512" y="1483.0107">What is DCS ...</text><path d="M678,1478.1641 L668,1478.1641 C653,1478.1641 653,1478.1641 638,1478.1641 L628,1478.1641 " fill="none" style="stroke:#181818;stroke-width:1.0;"/><path d="M913,1478.1641 L903,1478.1641 C888,1478.1641 888,1478.1641 873,1478.1641 L863,1478.1641 " fill="none" style="stroke:#181818;stroke-width:1.0;"/><rect fill="#F1F1F1" height="36.2969" rx="12.5" ry="12.5" style="stroke:#181818;stroke-width:1.5;" width="234" x="629" y="1516.3125"/><text fill="#000000" font-family="sans-serif" font-size="14" lengthAdjust="spacing" textLength="214" x="639" y="1539.3076">How to Make a Composite API</text><rect fill="#F1F1F1" height="36.2969" rx="12.5" ry="12.5" style="stroke:#181818;stroke-width:1.5;" width="327" x="252" y="1516.3125"/><text fill="#000000" font-family="sans-serif" font-size="14" lengthAdjust="spacing" textLength="307" x="262" y="1539.3076">What is a Composite API/Component Suite</text><path d="M629,1534.4609 L619,1534.4609 C604,1534.4609 604,1534.4609 589,1534.4609 L579,1534.4609 " fill="none" style="stroke:#181818;stroke-width:1.0;"/><path d="M913,1478.1641 L903,1478.1641 C888,1478.1641 888,1534.4609 873,1534.4609 L863,1534.4609 " fill="none" style="stroke:#181818;stroke-width:1.0;"/><path d="M1082,786.3047 L1072,786.3047 C1057,786.3047 1057,1478.1641 1042,1478.1641 L1032,1478.1641 " fill="none" style="stroke:#181818;stroke-width:1.0;"/><!--SRC=[XLPBR-Cs4BxhLmpIImA_kjjWKGIBnJgsatNMNXkHaXpg7cXgB1EHI9MadBY_laDIaXqdG4ysvyMPxviPwhknJDj2oBHWPTJvwxU5PZB3l-7h-biolr6wAc2udAuadSUumroL1KhhpxULI76jr7FKwJZx9KM2Jry7wsyhEPN22fQlv4Ak5TEfa1bPTM2fKUC_bJ32eXcivArIALW5FwLwSGOTY5zObg4UB8Onn2LoiH6SMQ6a0IR9TejmFuaJbnMKJBDKP0K4ruHqJZn68p89FhzSI3H1FHTSAwCs5XvZ6AaKWnXJOPNkct1lNwWwM5tzL6wKBdm6C2Ud7AwP4Jp4T0MfjEAs2p7gdU3OXNiqgj8SQuCHionNMHSMEaNTfNWx0b3fVHE0KDjtmy-zoZ7oEDq8RMml4GMUGjYX2p9XB6eI02LL9zfNEbl9hRMbkHeCYZtZN5NIzcsnQTG3NNlMLyTehGjIbR2db5qj6v6tYQkYP78FyN8nWc5PQhLZUHHIk5D2EazR8qwUcMQ5o_RSiVIYzBEn6bbXBg2ED-GSZN5atmh2gywhfvqz9SUa-DUZt5ulDtc5agFd_MvwFxnQoQSj8z-dBNLH5txKFKFMPmdohQHEoRsbEMiLmvIwcwhM57o7nrf8A3-O8peG6Zvl67Va31AbyWRnpg4-c3F9CdGpq9H5vT-g7Mh9P4lwKFCjTJYtbVQ4jkFnEOn7FKfqmKeoaFZYmaHDk2a5AXie6dmRPXpVNlQhAjQ1Id-yKJdr5ymOKMaFyt3cTFTLZePwAiUpWoRcMomOTLEfZ6WR4YQlh2Z9F8fwlJRjFqBQzO2r-OTLC5Eg9ECU32KC3StS5KnAcf0kZ1Mld0tzFU6dwve0fiPK6ERwclg0CAEUYXrLcEsZ49FITrmOT-h1kwq0joYH79GE1ikSIVimdy5OC4VPgVx144X-CxJPdPgupdCZxrgl1lwTIVAp4JcQlEn-EeWzT7wtdAXThr8TjJSDXXyyvarDoQXnUbxb49xuXNGaUC8rF4phMpoLFgSnOabbxXfV1zKSBOCnhHoQbL-ie26XPSYryEtKXKVKnl-X7OPBPhUrwum61DIctLq1xIF5egoBQJMJLvvNAQPkSz55j5KCtNdpkF1qpXyNfo4cRk-z2zoscvVMf9cJsjwmTb8rjKlbvypVco15e_QfbICtc9HXHZsP29lZ4GI44XrZosnLP_Ks6GAqUXLvBfZU7n8xduaDyZqdgukGMw9LjQRZLYb7QXIaXvK0eotovvpgRU9I4pSm18x2A7z0pnlw6f-MfEu7j2o7oUX7Zr52mApLObtP0vl751nXsgYFqGg9_JzcFTfMDho1P75r8E1uVLo6zJ5CTmwGzDqE2PCUxoLtFVpsrM-dXnwEENkcic0yYls-zDUx5m64yS9-l_-1kNl8t8h3zqudoe4_IRSJuagu8hwZJ9klewZTBRk01tpgV_xzysN_SarJz-NyGJxJLum4Ja7SV5fwlI-Yyzlb309XaBfto552pXVH7TlH-gKtckokm9tEa_a5n9D621Ev4rf93z7TupmOKNKsBfNrnbykUzUqIDt71r7tE8_6k65LRicLA_V9S0KFoKtlpsX6dtMLPnPbD79V1dfFklW_]--></g></svg>