<?xml version="1.0" encoding="us-ascii" standalone="no"?><svg xmlns="http://www.w3.org/2000/svg" xmlns:xlink="http://www.w3.org/1999/xlink" contentStyleType="text/css" height="1799px" preserveAspectRatio="none" style="width:2238px;height:1799px;background:#FFFFFF;" version="1.1" viewBox="0 0 2238 1799" width="2238px" zoomAndPan="magnify"><defs/><g><rect fill="#FFA500" height="68.8906" rx="12.5" ry="12.5" style="stroke:#181818;stroke-width:1.5;" width="127" x="1082" y="864.4531"/><text fill="#000000" font-family="sans-serif" font-size="14" font-weight="bold" lengthAdjust="spacing" textLength="107" x="1092" y="887.4482">TMForum API</text><text fill="#000000" font-family="sans-serif" font-size="14" font-weight="bold" lengthAdjust="spacing" textLength="105" x="1092" y="903.7451">Development</text><text fill="#000000" font-family="sans-serif" font-size="14" font-weight="bold" lengthAdjust="spacing" textLength="85" x="1092" y="920.042">Guidebook</text><rect fill="#F1F1F1" height="68.8906" rx="12.5" ry="12.5" style="stroke:#181818;stroke-width:1.5;" width="104" x="1259" y="723.7109"/><a href="part1.adoc" target="_top" title="part1.adoc" xlink:actuate="onRequest" xlink:href="part1.adoc" xlink:show="new" xlink:title="part1.adoc" xlink:type="simple"><text fill="#0000FF" font-family="sans-serif" font-size="14" font-weight="bold" lengthAdjust="spacing" text-decoration="underline" textLength="50" x="1269" y="746.7061">Part 1</text></a><text fill="#000000" font-family="sans-serif" font-size="14" lengthAdjust="spacing" textLength="40" x="1269" y="763.0029">Initial</text><text fill="#000000" font-family="sans-serif" font-size="14" lengthAdjust="spacing" textLength="84" x="1269" y="779.2998">Onboarding</text><rect fill="#F1F1F1" height="52.5938" rx="12.5" ry="12.5" style="stroke:#181818;stroke-width:1.5;" width="121" x="1413" y="478.5234"/><text fill="#000000" font-family="sans-serif" font-size="14" lengthAdjust="spacing" textLength="99" x="1423" y="501.5186">Prerequisites/</text><text fill="#000000" font-family="sans-serif" font-size="14" lengthAdjust="spacing" textLength="101" x="1423" y="517.8154">Good to Know</text><rect fill="#F1F1F1" height="36.2969" rx="12.5" ry="12.5" style="stroke:#181818;stroke-width:1.5;" width="425" x="1584" y="345.9297"/><text fill="#000000" font-family="sans-serif" font-size="14" lengthAdjust="spacing" textLength="401" x="1594" y="368.9248">Swagger/OAS Specifications and the REST API paradigm</text><path d="M1534,504.8203 L1544,504.8203 C1559,504.8203 1559,364.0781 1574,364.0781 L1584,364.0781 " fill="none" style="stroke:#181818;stroke-width:1.0;"/><rect fill="#F1F1F1" height="36.2969" rx="12.5" ry="12.5" style="stroke:#181818;stroke-width:1.5;" width="205" x="1584" y="402.2266"/><text fill="#000000" font-family="sans-serif" font-size="14" lengthAdjust="spacing" textLength="185" x="1594" y="425.2217">The API Design Guidelines</text><path d="M1534,504.8203 L1544,504.8203 C1559,504.8203 1559,420.375 1574,420.375 L1584,420.375 " fill="none" style="stroke:#181818;stroke-width:1.0;"/><rect fill="#F1F1F1" height="36.2969" rx="12.5" ry="12.5" style="stroke:#181818;stroke-width:1.5;" width="152" x="1584" y="458.5234"/><text fill="#000000" font-family="sans-serif" font-size="14" lengthAdjust="spacing" textLength="132" x="1594" y="481.5186">Microsoft VS Code</text><path d="M1534,504.8203 L1544,504.8203 C1559,504.8203 1559,476.6719 1574,476.6719 L1584,476.6719 " fill="none" style="stroke:#181818;stroke-width:1.0;"/><rect fill="#F1F1F1" height="36.2969" rx="12.5" ry="12.5" style="stroke:#181818;stroke-width:1.5;" width="146" x="1584" y="514.8203"/><text fill="#000000" font-family="sans-serif" font-size="14" lengthAdjust="spacing" textLength="126" x="1594" y="537.8154">editor.swagger.io</text><path d="M1534,504.8203 L1544,504.8203 C1559,504.8203 1559,532.9688 1574,532.9688 L1584,532.9688 " fill="none" style="stroke:#181818;stroke-width:1.0;"/><rect fill="#F1F1F1" height="36.2969" rx="12.5" ry="12.5" style="stroke:#181818;stroke-width:1.5;" width="270" x="1584" y="571.1172"/><text fill="#000000" font-family="sans-serif" font-size="14" lengthAdjust="spacing" textLength="250" x="1594" y="594.1123">TMForum Information Model Basics</text><rect fill="#F1F1F1" height="36.2969" rx="12.5" ry="12.5" style="stroke:#181818;stroke-width:1.5;" width="211" x="1904" y="514.8203"/><text fill="#000000" font-family="sans-serif" font-size="14" lengthAdjust="spacing" textLength="191" x="1914" y="537.8154">Product, Service, Resource</text><path d="M1854,589.2656 L1864,589.2656 C1879,589.2656 1879,532.9688 1894,532.9688 L1904,532.9688 " fill="none" style="stroke:#181818;stroke-width:1.0;"/><rect fill="#F1F1F1" height="36.2969" rx="12.5" ry="12.5" style="stroke:#181818;stroke-width:1.5;" width="201" x="1904" y="571.1172"/><text fill="#000000" font-family="sans-serif" font-size="14" lengthAdjust="spacing" textLength="181" x="1914" y="594.1123">Catalog, Order, Inventory</text><path d="M1854,589.2656 L1864,589.2656 C1879,589.2656 1879,589.2656 1894,589.2656 L1904,589.2656 " fill="none" style="stroke:#181818;stroke-width:1.0;"/><rect fill="#F1F1F1" height="36.2969" rx="12.5" ry="12.5" style="stroke:#181818;stroke-width:1.5;" width="136" x="1904" y="627.4141"/><text fill="#000000" font-family="sans-serif" font-size="14" lengthAdjust="spacing" textLength="116" x="1914" y="650.4092">Party, PartyRole</text><path d="M1854,589.2656 L1864,589.2656 C1879,589.2656 1879,645.5625 1894,645.5625 L1904,645.5625 " fill="none" style="stroke:#181818;stroke-width:1.0;"/><path d="M1534,504.8203 L1544,504.8203 C1559,504.8203 1559,589.2656 1574,589.2656 L1584,589.2656 " fill="none" style="stroke:#181818;stroke-width:1.0;"/><path d="M1363,758.1563 L1373,758.1563 C1388,758.1563 1388,504.8203 1403,504.8203 L1413,504.8203 " fill="none" style="stroke:#181818;stroke-width:1.0;"/><rect fill="#F1F1F1" height="52.5938" rx="12.5" ry="12.5" style="stroke:#181818;stroke-width:1.5;" width="104" x="1413" y="900.75"/><text fill="#000000" font-family="sans-serif" font-size="14" lengthAdjust="spacing" textLength="74" x="1423" y="923.7451">First-Time</text><text fill="#000000" font-family="sans-serif" font-size="14" lengthAdjust="spacing" textLength="84" x="1423" y="940.042">Onboarding</text><rect fill="#F1F1F1" height="52.5938" rx="12.5" ry="12.5" style="stroke:#181818;stroke-width:1.5;" width="314" x="1567" y="703.7109"/><text fill="#000000" font-family="sans-serif" font-size="14" lengthAdjust="spacing" textLength="204" x="1577" y="726.7061">Registering on TMForum.org</text><text fill="#000000" font-family="sans-serif" font-size="14" lengthAdjust="spacing" textLength="294" x="1577" y="743.0029">https://myaccount.tmforum.org/register</text><rect fill="#F1F1F1" height="36.2969" rx="12.5" ry="12.5" style="stroke:#181818;stroke-width:1.5;" width="182" x="1931" y="683.7109"/><text fill="#000000" font-family="sans-serif" font-size="14" lengthAdjust="spacing" textLength="162" x="1941" y="706.7061">Setting up your Profile</text><path d="M1881,730.0078 L1891,730.0078 C1906,730.0078 1906,701.8594 1921,701.8594 L1931,701.8594 " fill="none" style="stroke:#181818;stroke-width:1.0;"/><rect fill="#F1F1F1" height="36.2969" rx="12.5" ry="12.5" style="stroke:#181818;stroke-width:1.5;" width="200" x="1931" y="740.0078"/><text fill="#000000" font-family="sans-serif" font-size="14" lengthAdjust="spacing" textLength="180" x="1941" y="763.0029">Company SPOC Approval</text><path d="M1881,730.0078 L1891,730.0078 C1906,730.0078 1906,758.1563 1921,758.1563 L1931,758.1563 " fill="none" style="stroke:#181818;stroke-width:1.0;"/><path d="M1517,927.0469 L1527,927.0469 C1542,927.0469 1542,730.0078 1557,730.0078 L1567,730.0078 " fill="none" style="stroke:#181818;stroke-width:1.0;"/><rect fill="#F1F1F1" height="52.5938" rx="12.5" ry="12.5" style="stroke:#181818;stroke-width:1.5;" width="212" x="1567" y="844.4531"/><text fill="#000000" font-family="sans-serif" font-size="14" lengthAdjust="spacing" textLength="192" x="1577" y="867.4482">Joining the API Programme</text><text fill="#000000" font-family="sans-serif" font-size="14" lengthAdjust="spacing" textLength="133" x="1577" y="883.7451">(and workstreams)</text><rect fill="#F1F1F1" height="36.2969" rx="12.5" ry="12.5" style="stroke:#181818;stroke-width:1.5;" width="319" x="1829" y="796.3047"/><text fill="#000000" font-family="sans-serif" font-size="14" lengthAdjust="spacing" textLength="299" x="1839" y="819.2998">Access to Git, tmforum-rand organization</text><path d="M1779,870.75 L1789,870.75 C1804,870.75 1804,814.4531 1819,814.4531 L1829,814.4531 " fill="none" style="stroke:#181818;stroke-width:1.0;"/><rect fill="#F1F1F1" height="52.5938" rx="12.5" ry="12.5" style="stroke:#181818;stroke-width:1.5;" width="168" x="1829" y="872.6016"/><text fill="#000000" font-family="sans-serif" font-size="14" lengthAdjust="spacing" textLength="148" x="1839" y="895.5967">Confluence and JIRA:</text><text fill="#000000" font-family="sans-serif" font-size="14" lengthAdjust="spacing" textLength="131" x="1839" y="911.8936">What, Where, How</text><rect fill="#F1F1F1" height="36.2969" rx="12.5" ry="12.5" style="stroke:#181818;stroke-width:1.5;" width="141" x="2047" y="852.6016"/><text fill="#000000" font-family="sans-serif" font-size="14" lengthAdjust="spacing" textLength="121" x="2057" y="875.5967">"Technical JIRAs"</text><path d="M1997,898.8984 L2007,898.8984 C2022,898.8984 2022,870.75 2037,870.75 L2047,870.75 " fill="none" style="stroke:#181818;stroke-width:1.0;"/><rect fill="#F1F1F1" height="36.2969" rx="12.5" ry="12.5" style="stroke:#181818;stroke-width:1.5;" width="179" x="2047" y="908.8984"/><text fill="#000000" font-family="sans-serif" font-size="14" lengthAdjust="spacing" textLength="159" x="2057" y="931.8936">"Administrative JIRAs"</text><path d="M1997,898.8984 L2007,898.8984 C2022,898.8984 2022,927.0469 2037,927.0469 L2047,927.0469 " fill="none" style="stroke:#181818;stroke-width:1.0;"/><path d="M1779,870.75 L1789,870.75 C1804,870.75 1804,898.8984 1819,898.8984 L1829,898.8984 " fill="none" style="stroke:#181818;stroke-width:1.0;"/><path d="M1517,927.0469 L1527,927.0469 C1542,927.0469 1542,870.75 1557,870.75 L1567,870.75 " fill="none" style="stroke:#181818;stroke-width:1.0;"/><rect fill="#F1F1F1" height="36.2969" rx="12.5" ry="12.5" style="stroke:#181818;stroke-width:1.5;" width="130" x="1567" y="1049.6406"/><text fill="#000000" font-family="sans-serif" font-size="14" lengthAdjust="spacing" textLength="110" x="1577" y="1072.6357">Team Meetings</text><rect fill="#F1F1F1" height="36.2969" rx="12.5" ry="12.5" style="stroke:#181818;stroke-width:1.5;" width="132" x="1747" y="965.1953"/><text fill="#000000" font-family="sans-serif" font-size="14" lengthAdjust="spacing" textLength="112" x="1757" y="988.1904">Factory/Tooling</text><path d="M1697,1067.7891 L1707,1067.7891 C1722,1067.7891 1722,983.3438 1737,983.3438 L1747,983.3438 " fill="none" style="stroke:#181818;stroke-width:1.0;"/><rect fill="#F1F1F1" height="36.2969" rx="12.5" ry="12.5" style="stroke:#181818;stroke-width:1.5;" width="202" x="1747" y="1021.4922"/><text fill="#000000" font-family="sans-serif" font-size="14" lengthAdjust="spacing" textLength="182" x="1757" y="1044.4873">Programme Management</text><path d="M1697,1067.7891 L1707,1067.7891 C1722,1067.7891 1722,1039.6406 1737,1039.6406 L1747,1039.6406 " fill="none" style="stroke:#181818;stroke-width:1.0;"/><rect fill="#F1F1F1" height="36.2969" rx="12.5" ry="12.5" style="stroke:#181818;stroke-width:1.5;" width="133" x="1747" y="1077.7891"/><text fill="#000000" font-family="sans-serif" font-size="14" lengthAdjust="spacing" textLength="113" x="1757" y="1100.7842">API Governance</text><path d="M1697,1067.7891 L1707,1067.7891 C1722,1067.7891 1722,1095.9375 1737,1095.9375 L1747,1095.9375 " fill="none" style="stroke:#181818;stroke-width:1.0;"/><rect fill="#F1F1F1" height="36.2969" rx="12.5" ry="12.5" style="stroke:#181818;stroke-width:1.5;" width="111" x="1747" y="1134.0859"/><text fill="#000000" font-family="sans-serif" font-size="14" lengthAdjust="spacing" textLength="91" x="1757" y="1157.0811">Architecture</text><path d="M1697,1067.7891 L1707,1067.7891 C1722,1067.7891 1722,1152.2344 1737,1152.2344 L1747,1152.2344 " fill="none" style="stroke:#181818;stroke-width:1.0;"/><path d="M1517,927.0469 L1527,927.0469 C1542,927.0469 1542,1067.7891 1557,1067.7891 L1567,1067.7891 " fill="none" style="stroke:#181818;stroke-width:1.0;"/><path d="M1363,758.1563 L1373,758.1563 C1388,758.1563 1388,927.0469 1403,927.0469 L1413,927.0469 " fill="none" style="stroke:#181818;stroke-width:1.0;"/><path d="M1209,898.8984 L1219,898.8984 C1234,898.8984 1234,758.1563 1249,758.1563 L1259,758.1563 " fill="none" style="stroke:#181818;stroke-width:1.0;"/><rect fill="#F1F1F1" height="68.8906" rx="12.5" ry="12.5" style="stroke:#181818;stroke-width:1.5;" width="102" x="1259" y="1286.6797"/><text fill="#000000" font-family="sans-serif" font-size="14" font-weight="bold" lengthAdjust="spacing" textLength="50" x="1269" y="1309.6748">Part 2</text><text fill="#000000" font-family="sans-serif" font-size="14" lengthAdjust="spacing" textLength="82" x="1269" y="1325.9717">Developing</text><text fill="#000000" font-family="sans-serif" font-size="14" lengthAdjust="spacing" textLength="68" x="1269" y="1342.2686">a new API</text><rect fill="#F1F1F1" height="36.2969" rx="12.5" ry="12.5" style="stroke:#181818;stroke-width:1.5;" width="116" x="1411" y="1190.3828"/><text fill="#000000" font-family="sans-serif" font-size="14" lengthAdjust="spacing" textLength="96" x="1421" y="1213.3779">API Inception</text><path d="M1361,1321.125 L1371,1321.125 C1386,1321.125 1386,1208.5313 1401,1208.5313 L1411,1208.5313 " fill="none" style="stroke:#181818;stroke-width:1.0;"/><rect fill="#F1F1F1" height="36.2969" rx="12.5" ry="12.5" style="stroke:#181818;stroke-width:1.5;" width="94" x="1411" y="1246.6797"/><text fill="#000000" font-family="sans-serif" font-size="14" lengthAdjust="spacing" textLength="74" x="1421" y="1269.6748">API Profile</text><path d="M1361,1321.125 L1371,1321.125 C1386,1321.125 1386,1264.8281 1401,1264.8281 L1411,1264.8281 " fill="none" style="stroke:#181818;stroke-width:1.0;"/><rect fill="#F1F1F1" height="36.2969" rx="12.5" ry="12.5" style="stroke:#181818;stroke-width:1.5;" width="137" x="1411" y="1302.9766"/><text fill="#000000" font-family="sans-serif" font-size="14" lengthAdjust="spacing" textLength="117" x="1421" y="1325.9717">TMF API Number</text><path d="M1361,1321.125 L1371,1321.125 C1386,1321.125 1386,1321.125 1401,1321.125 L1411,1321.125 " fill="none" style="stroke:#181818;stroke-width:1.0;"/><rect fill="#F1F1F1" height="36.2969" rx="12.5" ry="12.5" style="stroke:#181818;stroke-width:1.5;" width="144" x="1411" y="1359.2734"/><text fill="#000000" font-family="sans-serif" font-size="14" lengthAdjust="spacing" textLength="124" x="1421" y="1382.2686">API Folder Layout</text><rect fill="#F1F1F1" height="36.2969" rx="12.5" ry="12.5" style="stroke:#181818;stroke-width:1.5;" width="159" x="1605" y="1302.9766"/><text fill="#000000" font-family="sans-serif" font-size="14" lengthAdjust="spacing" textLength="139" x="1615" y="1325.9717">The "API Rules File"</text><path d="M1555,1377.4219 L1565,1377.4219 C1580,1377.4219 1580,1321.125 1595,1321.125 L1605,1321.125 " fill="none" style="stroke:#181818;stroke-width:1.0;"/><rect fill="#F1F1F1" height="36.2969" rx="12.5" ry="12.5" style="stroke:#181818;stroke-width:1.5;" width="191" x="1605" y="1359.2734"/><text fill="#000000" font-family="sans-serif" font-size="14" lengthAdjust="spacing" textLength="171" x="1615" y="1382.2686">The Schema Repository</text><path d="M1555,1377.4219 L1565,1377.4219 C1580,1377.4219 1580,1377.4219 1595,1377.4219 L1605,1377.4219 " fill="none" style="stroke:#181818;stroke-width:1.0;"/><rect fill="#F1F1F1" height="36.2969" rx="12.5" ry="12.5" style="stroke:#181818;stroke-width:1.5;" width="89" x="1605" y="1415.5703"/><text fill="#000000" font-family="sans-serif" font-size="14" lengthAdjust="spacing" textLength="69" x="1615" y="1438.5654">Examples</text><path d="M1555,1377.4219 L1565,1377.4219 C1580,1377.4219 1580,1433.7188 1595,1433.7188 L1605,1433.7188 " fill="none" style="stroke:#181818;stroke-width:1.0;"/><path d="M1361,1321.125 L1371,1321.125 C1386,1321.125 1386,1377.4219 1401,1377.4219 L1411,1377.4219 " fill="none" style="stroke:#181818;stroke-width:1.0;"/><path d="M1209,898.8984 L1219,898.8984 C1234,898.8984 1234,1321.125 1249,1321.125 L1259,1321.125 " fill="none" style="stroke:#181818;stroke-width:1.0;"/><rect fill="#F1F1F1" height="85.1875" rx="12.5" ry="12.5" style="stroke:#181818;stroke-width:1.5;" width="119" x="913" y="771.8594"/><text fill="#000000" font-family="sans-serif" font-size="14" font-weight="bold" lengthAdjust="spacing" textLength="50" x="923" y="794.8545">Part 3</text><text fill="#000000" font-family="sans-serif" font-size="14" lengthAdjust="spacing" textLength="54" x="923" y="811.1514">The API</text><text fill="#000000" font-family="sans-serif" font-size="14" lengthAdjust="spacing" textLength="99" x="923" y="827.4482">Development</text><text fill="#000000" font-family="sans-serif" font-size="14" lengthAdjust="spacing" textLength="36" x="923" y="843.7451">Loop</text><rect fill="#F1F1F1" height="36.2969" rx="12.5" ry="12.5" style="stroke:#181818;stroke-width:1.5;" width="159" x="704" y="104.4453"/><text fill="#000000" font-family="sans-serif" font-size="14" lengthAdjust="spacing" textLength="139" x="714" y="127.4404">Managing Our Work</text><rect fill="#F1F1F1" height="36.2969" rx="12.5" ry="12.5" style="stroke:#181818;stroke-width:1.5;" width="309" x="345" y="20"/><text fill="#000000" font-family="sans-serif" font-size="14" lengthAdjust="spacing" textLength="289" x="355" y="42.9951">API Epics: Tracking API Asset Production</text><path d="M704,122.5938 L694,122.5938 C679,122.5938 679,38.1484 664,38.1484 L654,38.1484 " fill="none" style="stroke:#181818;stroke-width:1.0;"/><rect fill="#F1F1F1" height="36.2969" rx="12.5" ry="12.5" style="stroke:#181818;stroke-width:1.5;" width="251" x="403" y="76.2969"/><text fill="#000000" font-family="sans-serif" font-size="14" lengthAdjust="spacing" textLength="231" x="413" y="99.292">Technical JIRAs: The API Backlog</text><path d="M704,122.5938 L694,122.5938 C679,122.5938 679,94.4453 664,94.4453 L654,94.4453 " fill="none" style="stroke:#181818;stroke-width:1.0;"/><rect fill="#F1F1F1" height="36.2969" rx="12.5" ry="12.5" style="stroke:#181818;stroke-width:1.5;" width="316" x="338" y="132.5938"/><text fill="#000000" font-family="sans-serif" font-size="14" lengthAdjust="spacing" textLength="296" x="348" y="155.5889">Git Issues: The Tooling and CI/CD Backlog</text><path d="M704,122.5938 L694,122.5938 C679,122.5938 679,150.7422 664,150.7422 L654,150.7422 " fill="none" style="stroke:#181818;stroke-width:1.0;"/><rect fill="#F1F1F1" height="36.2969" rx="12.5" ry="12.5" style="stroke:#181818;stroke-width:1.5;" width="288" x="366" y="188.8906"/><text fill="#000000" font-family="sans-serif" font-size="14" lengthAdjust="spacing" textLength="268" x="376" y="211.8857">Branching Strategy and Pull Requests</text><path d="M704,122.5938 L694,122.5938 C679,122.5938 679,207.0391 664,207.0391 L654,207.0391 " fill="none" style="stroke:#181818;stroke-width:1.0;"/><path d="M913,814.4531 L903,814.4531 C888,814.4531 888,122.5938 873,122.5938 L863,122.5938 " fill="none" style="stroke:#181818;stroke-width:1.0;"/><rect fill="#F1F1F1" height="36.2969" rx="12.5" ry="12.5" style="stroke:#181818;stroke-width:1.5;" width="188" x="675" y="414.0781"/><text fill="#000000" font-family="sans-serif" font-size="14" lengthAdjust="spacing" textLength="168" x="685" y="437.0732">The Production Process</text><rect fill="#F1F1F1" height="36.2969" rx="12.5" ry="12.5" style="stroke:#181818;stroke-width:1.5;" width="234" x="391" y="245.1875"/><text fill="#000000" font-family="sans-serif" font-size="14" lengthAdjust="spacing" textLength="214" x="401" y="268.1826">OAS Specification Generation</text><path d="M675,432.2266 L665,432.2266 C650,432.2266 650,263.3359 635,263.3359 L625,263.3359 " fill="none" style="stroke:#181818;stroke-width:1.0;"/><rect fill="#F1F1F1" height="36.2969" rx="12.5" ry="12.5" style="stroke:#181818;stroke-width:1.5;" width="235" x="390" y="301.4844"/><text fill="#000000" font-family="sans-serif" font-size="14" lengthAdjust="spacing" textLength="215" x="400" y="324.4795">PlantUML Diagram Generation</text><path d="M675,432.2266 L665,432.2266 C650,432.2266 650,319.6328 635,319.6328 L625,319.6328 " fill="none" style="stroke:#181818;stroke-width:1.0;"/><rect fill="#F1F1F1" height="36.2969" rx="12.5" ry="12.5" style="stroke:#181818;stroke-width:1.5;" width="260" x="365" y="357.7813"/><text fill="#000000" font-family="sans-serif" font-size="14" lengthAdjust="spacing" textLength="240" x="375" y="380.7764">User Guide Document Generation</text><path d="M675,432.2266 L665,432.2266 C650,432.2266 650,375.9297 635,375.9297 L625,375.9297 " fill="none" style="stroke:#181818;stroke-width:1.0;"/><rect fill="#F1F1F1" height="36.2969" rx="12.5" ry="12.5" style="stroke:#181818;stroke-width:1.5;" width="253" x="372" y="414.0781"/><text fill="#000000" font-family="sans-serif" font-size="14" lengthAdjust="spacing" textLength="233" x="382" y="437.0732">Conformance Profile Generation</text><path d="M675,432.2266 L665,432.2266 C650,432.2266 650,432.2266 635,432.2266 L625,432.2266 " fill="none" style="stroke:#181818;stroke-width:1.0;"/><rect fill="#F1F1F1" height="36.2969" rx="12.5" ry="12.5" style="stroke:#181818;stroke-width:1.5;" width="134" x="491" y="470.375"/><text fill="#000000" font-family="sans-serif" font-size="14" lengthAdjust="spacing" textLength="114" x="501" y="493.3701">CTK Generation</text><path d="M675,432.2266 L665,432.2266 C650,432.2266 650,488.5234 635,488.5234 L625,488.5234 " fill="none" style="stroke:#181818;stroke-width:1.0;"/><rect fill="#F1F1F1" height="36.2969" rx="12.5" ry="12.5" style="stroke:#181818;stroke-width:1.5;" width="219" x="406" y="526.6719"/><text fill="#000000" font-family="sans-serif" font-size="14" lengthAdjust="spacing" textLength="199" x="416" y="549.667">RI/Sample Code Generation</text><path d="M675,432.2266 L665,432.2266 C650,432.2266 650,544.8203 635,544.8203 L625,544.8203 " fill="none" style="stroke:#181818;stroke-width:1.0;"/><rect fill="#F1F1F1" height="36.2969" rx="12.5" ry="12.5" style="stroke:#181818;stroke-width:1.5;" width="190" x="435" y="582.9688"/><text fill="#000000" font-family="sans-serif" font-size="14" lengthAdjust="spacing" textLength="170" x="445" y="605.9639">The Publication Process</text><path d="M675,432.2266 L665,432.2266 C650,432.2266 650,601.1172 635,601.1172 L625,601.1172 " fill="none" style="stroke:#181818;stroke-width:1.0;"/><path d="M913,814.4531 L903,814.4531 C888,814.4531 888,432.2266 873,432.2266 L863,432.2266 " fill="none" style="stroke:#181818;stroke-width:1.0;"/><rect fill="#F1F1F1" height="36.2969" rx="12.5" ry="12.5" style="stroke:#181818;stroke-width:1.5;" width="72" x="791" y="1105.9375"/><text fill="#000000" font-family="sans-serif" font-size="14" lengthAdjust="spacing" textLength="52" x="801" y="1128.9326">How To</text><rect fill="#F1F1F1" height="36.2969" rx="12.5" ry="12.5" style="stroke:#181818;stroke-width:1.5;" width="177" x="564" y="667.4141"/><text fill="#000000" font-family="sans-serif" font-size="14" lengthAdjust="spacing" textLength="157" x="574" y="690.4092">Creating a Codespace</text><rect fill="#F1F1F1" height="36.2969" rx="12.5" ry="12.5" style="stroke:#181818;stroke-width:1.5;" width="136" x="378" y="639.2656"/><text fill="#000000" font-family="sans-serif" font-size="14" lengthAdjust="spacing" textLength="116" x="388" y="662.2607">The Code Editor</text><path d="M564,685.5625 L554,685.5625 C539,685.5625 539,657.4141 524,657.4141 L514,657.4141 " fill="none" style="stroke:#181818;stroke-width:1.0;"/><rect fill="#F1F1F1" height="36.2969" rx="12.5" ry="12.5" style="stroke:#181818;stroke-width:1.5;" width="101" x="413" y="695.5625"/><text fill="#000000" font-family="sans-serif" font-size="14" lengthAdjust="spacing" textLength="81" x="423" y="718.5576">The Web UI</text><path d="M564,685.5625 L554,685.5625 C539,685.5625 539,713.7109 524,713.7109 L514,713.7109 " fill="none" style="stroke:#181818;stroke-width:1.0;"/><path d="M791,1124.0859 L781,1124.0859 C766,1124.0859 766,685.5625 751,685.5625 L741,685.5625 " fill="none" style="stroke:#181818;stroke-width:1.0;"/><rect fill="#F1F1F1" height="36.2969" rx="12.5" ry="12.5" style="stroke:#181818;stroke-width:1.5;" width="164" x="577" y="880.75"/><text fill="#000000" font-family="sans-serif" font-size="14" lengthAdjust="spacing" textLength="144" x="587" y="903.7451">Rules file Deep Dive</text><rect fill="#F1F1F1" height="52.5938" rx="12.5" ry="12.5" style="stroke:#181818;stroke-width:1.5;" width="290" x="237" y="751.8594"/><text fill="#000000" font-family="sans-serif" font-size="14" lengthAdjust="spacing" textLength="106" x="247" y="774.8545">API Meta Data:</text><text fill="#000000" font-family="sans-serif" font-size="14" lengthAdjust="spacing" textLength="270" x="247" y="791.1514">Name, Description, Version, BasePath</text><path d="M577,898.8984 L567,898.8984 C552,898.8984 552,778.1563 537,778.1563 L527,778.1563 " fill="none" style="stroke:#181818;stroke-width:1.0;"/><rect fill="#F1F1F1" height="36.2969" rx="12.5" ry="12.5" style="stroke:#181818;stroke-width:1.5;" width="142" x="385" y="917.0469"/><text fill="#000000" font-family="sans-serif" font-size="14" lengthAdjust="spacing" textLength="122" x="395" y="940.042">List of Resources</text><rect fill="#F1F1F1" height="36.2969" rx="12.5" ry="12.5" style="stroke:#181818;stroke-width:1.5;" width="149" x="186" y="824.4531"/><text fill="#000000" font-family="sans-serif" font-size="14" lengthAdjust="spacing" textLength="129" x="196" y="847.4482">List of Operations</text><path d="M385,935.1953 L375,935.1953 C360,935.1953 360,842.6016 345,842.6016 L335,842.6016 " fill="none" style="stroke:#181818;stroke-width:1.0;"/><rect fill="#F1F1F1" height="52.5938" rx="12.5" ry="12.5" style="stroke:#181818;stroke-width:1.5;" width="176" x="159" y="880.75"/><text fill="#000000" font-family="sans-serif" font-size="14" lengthAdjust="spacing" textLength="156" x="169" y="903.7451">Excluded Parameters:</text><text fill="#000000" font-family="sans-serif" font-size="14" lengthAdjust="spacing" textLength="96" x="169" y="920.042">FVO and MVO</text><path d="M385,935.1953 L375,935.1953 C360,935.1953 360,907.0469 345,907.0469 L335,907.0469 " fill="none" style="stroke:#181818;stroke-width:1.0;"/><rect fill="#F1F1F1" height="36.2969" rx="12.5" ry="12.5" style="stroke:#181818;stroke-width:1.5;" width="118" x="217" y="953.3438"/><text fill="#000000" font-family="sans-serif" font-size="14" lengthAdjust="spacing" textLength="98" x="227" y="976.3389">List of Events</text><path d="M385,935.1953 L375,935.1953 C360,935.1953 360,971.4922 345,971.4922 L335,971.4922 " fill="none" style="stroke:#181818;stroke-width:1.0;"/><rect fill="#F1F1F1" height="36.2969" rx="12.5" ry="12.5" style="stroke:#181818;stroke-width:1.5;" width="138" x="197" y="1009.6406"/><text fill="#000000" font-family="sans-serif" font-size="14" lengthAdjust="spacing" textLength="118" x="207" y="1032.6357">List of Examples</text><path d="M385,935.1953 L375,935.1953 C360,935.1953 360,1027.7891 345,1027.7891 L335,1027.7891 " fill="none" style="stroke:#181818;stroke-width:1.0;"/><path d="M577,898.8984 L567,898.8984 C552,898.8984 552,935.1953 537,935.1953 L527,935.1953 " fill="none" style="stroke:#181818;stroke-width:1.0;"/><path d="M791,1124.0859 L781,1124.0859 C766,1124.0859 766,898.8984 751,898.8984 L741,898.8984 " fill="none" style="stroke:#181818;stroke-width:1.0;"/><rect fill="#F1F1F1" height="36.2969" rx="12.5" ry="12.5" style="stroke:#181818;stroke-width:1.5;" width="166" x="575" y="937.0469"/><text fill="#000000" font-family="sans-serif" font-size="14" lengthAdjust="spacing" textLength="146" x="585" y="960.042">Diagrams Deep Dive</text><path d="M791,1124.0859 L781,1124.0859 C766,1124.0859 766,955.1953 751,955.1953 L741,955.1953 " fill="none" style="stroke:#181818;stroke-width:1.0;"/><rect fill="#F1F1F1" height="36.2969" rx="12.5" ry="12.5" style="stroke:#181818;stroke-width:1.5;" width="175" x="566" y="1150.3828"/><text fill="#000000" font-family="sans-serif" font-size="14" lengthAdjust="spacing" textLength="155" x="576" y="1173.3779">User Guide Deep Dive</text><rect fill="#F1F1F1" height="36.2969" rx="12.5" ry="12.5" style="stroke:#181818;stroke-width:1.5;" width="192" x="324" y="1065.9375"/><text fill="#000000" font-family="sans-serif" font-size="14" lengthAdjust="spacing" textLength="172" x="334" y="1088.9326">Structure and Template</text><path d="M566,1168.5313 L556,1168.5313 C541,1168.5313 541,1084.0859 526,1084.0859 L516,1084.0859 " fill="none" style="stroke:#181818;stroke-width:1.0;"/><rect fill="#F1F1F1" height="36.2969" rx="12.5" ry="12.5" style="stroke:#181818;stroke-width:1.5;" width="302" x="214" y="1122.2344"/><text fill="#000000" font-family="sans-serif" font-size="14" lengthAdjust="spacing" textLength="282" x="224" y="1145.2295">Cover Page: Title, Version, Date, Status</text><path d="M566,1168.5313 L556,1168.5313 C541,1168.5313 541,1140.3828 526,1140.3828 L516,1140.3828 " fill="none" style="stroke:#181818;stroke-width:1.0;"/><rect fill="#F1F1F1" height="36.2969" rx="12.5" ry="12.5" style="stroke:#181818;stroke-width:1.5;" width="89" x="427" y="1178.5313"/><text fill="#000000" font-family="sans-serif" font-size="14" lengthAdjust="spacing" textLength="69" x="437" y="1201.5264">Examples</text><path d="M566,1168.5313 L556,1168.5313 C541,1168.5313 541,1196.6797 526,1196.6797 L516,1196.6797 " fill="none" style="stroke:#181818;stroke-width:1.0;"/><rect fill="#F1F1F1" height="36.2969" rx="12.5" ry="12.5" style="stroke:#181818;stroke-width:1.5;" width="240" x="276" y="1234.8281"/><text fill="#000000" font-family="sans-serif" font-size="14" lengthAdjust="spacing" textLength="220" x="286" y="1257.8232">Auxilliary Diagrams (Lifecycles)</text><path d="M566,1168.5313 L556,1168.5313 C541,1168.5313 541,1252.9766 526,1252.9766 L516,1252.9766 " fill="none" style="stroke:#181818;stroke-width:1.0;"/><path d="M791,1124.0859 L781,1124.0859 C766,1124.0859 766,1168.5313 751,1168.5313 L741,1168.5313 " fill="none" style="stroke:#181818;stroke-width:1.0;"/><rect fill="#F1F1F1" height="36.2969" rx="12.5" ry="12.5" style="stroke:#181818;stroke-width:1.5;" width="138" x="603" y="1206.6797"/><text fill="#000000" font-family="sans-serif" font-size="14" lengthAdjust="spacing" textLength="118" x="613" y="1229.6748">Troubleshooting</text><path d="M791,1124.0859 L781,1124.0859 C766,1124.0859 766,1224.8281 751,1224.8281 L741,1224.8281 " fill="none" style="stroke:#181818;stroke-width:1.0;"/><rect fill="#F1F1F1" height="36.2969" rx="12.5" ry="12.5" style="stroke:#181818;stroke-width:1.5;" width="184" x="557" y="1431.8672"/><text fill="#000000" font-family="sans-serif" font-size="14" lengthAdjust="spacing" textLength="164" x="567" y="1454.8623">Governance Checklists</text><rect fill="#F1F1F1" height="36.2969" rx="12.5" ry="12.5" style="stroke:#181818;stroke-width:1.5;" width="50" x="457" y="1375.5703"/><text fill="#000000" font-family="sans-serif" font-size="14" lengthAdjust="spacing" textLength="30" x="467" y="1398.5654">OAS</text><rect fill="#F1F1F1" height="36.2969" rx="12.5" ry="12.5" style="stroke:#181818;stroke-width:1.5;" width="355" x="52" y="1291.125"/><text fill="#000000" font-family="sans-serif" font-size="14" lengthAdjust="spacing" textLength="335" x="62" y="1314.1201">Name, Number, Version, BasePath, Description</text><path d="M457,1393.7188 L447,1393.7188 C432,1393.7188 432,1309.2734 417,1309.2734 L407,1309.2734 " fill="none" style="stroke:#181818;stroke-width:1.0;"/><rect fill="#F1F1F1" height="36.2969" rx="12.5" ry="12.5" style="stroke:#181818;stroke-width:1.5;" width="181" x="226" y="1347.4219"/><text fill="#000000" font-family="sans-serif" font-size="14" lengthAdjust="spacing" textLength="161" x="236" y="1370.417">Resources, Operations</text><path d="M457,1393.7188 L447,1393.7188 C432,1393.7188 432,1365.5703 417,1365.5703 L407,1365.5703 " fill="none" style="stroke:#181818;stroke-width:1.0;"/><rect fill="#F1F1F1" height="36.2969" rx="12.5" ry="12.5" style="stroke:#181818;stroke-width:1.5;" width="182" x="225" y="1403.7188"/><text fill="#000000" font-family="sans-serif" font-size="14" lengthAdjust="spacing" textLength="162" x="235" y="1426.7139">PATCH-able attributes</text><path d="M457,1393.7188 L447,1393.7188 C432,1393.7188 432,1421.8672 417,1421.8672 L407,1421.8672 " fill="none" style="stroke:#181818;stroke-width:1.0;"/><rect fill="#F1F1F1" height="36.2969" rx="12.5" ry="12.5" style="stroke:#181818;stroke-width:1.5;" width="69" x="338" y="1460.0156"/><text fill="#000000" font-family="sans-serif" font-size="14" lengthAdjust="spacing" textLength="49" x="348" y="1483.0107">Events</text><path d="M457,1393.7188 L447,1393.7188 C432,1393.7188 432,1478.1641 417,1478.1641 L407,1478.1641 " fill="none" style="stroke:#181818;stroke-width:1.0;"/><path d="M557,1450.0156 L547,1450.0156 C532,1450.0156 532,1393.7188 517,1393.7188 L507,1393.7188 " fill="none" style="stroke:#181818;stroke-width:1.0;"/><rect fill="#F1F1F1" height="36.2969" rx="12.5" ry="12.5" style="stroke:#181818;stroke-width:1.5;" width="96" x="411" y="1544.4609"/><text fill="#000000" font-family="sans-serif" font-size="14" lengthAdjust="spacing" textLength="76" x="421" y="1567.4561">User Guide</text><rect fill="#F1F1F1" height="36.2969" rx="12.5" ry="12.5" style="stroke:#181818;stroke-width:1.5;" width="351" x="10" y="1516.3125"/><text fill="#000000" font-family="sans-serif" font-size="14" lengthAdjust="spacing" textLength="331" x="20" y="1539.3076">Cover Page: Name, Title, Version, Date, Status</text><path d="M411,1562.6094 L401,1562.6094 C386,1562.6094 386,1534.4609 371,1534.4609 L361,1534.4609 " fill="none" style="stroke:#181818;stroke-width:1.0;"/><rect fill="#F1F1F1" height="36.2969" rx="12.5" ry="12.5" style="stroke:#181818;stroke-width:1.5;" width="188" x="173" y="1572.6094"/><text fill="#000000" font-family="sans-serif" font-size="14" lengthAdjust="spacing" textLength="168" x="183" y="1595.6045">Introduction: Template</text><path d="M411,1562.6094 L401,1562.6094 C386,1562.6094 386,1590.7578 371,1590.7578 L361,1590.7578 " fill="none" style="stroke:#181818;stroke-width:1.0;"/><path d="M557,1450.0156 L547,1450.0156 C532,1450.0156 532,1562.6094 517,1562.6094 L507,1562.6094 " fill="none" style="stroke:#181818;stroke-width:1.0;"/><path d="M791,1124.0859 L781,1124.0859 C766,1124.0859 766,1450.0156 751,1450.0156 L741,1450.0156 " fill="none" style="stroke:#181818;stroke-width:1.0;"/><path d="M913,814.4531 L903,814.4531 C888,814.4531 888,1124.0859 873,1124.0859 L863,1124.0859 " fill="none" style="stroke:#181818;stroke-width:1.0;"/><path d="M1082,898.8984 L1072,898.8984 C1057,898.8984 1057,814.4531 1042,814.4531 L1032,814.4531 " fill="none" style="stroke:#181818;stroke-width:1.0;"/><rect fill="#F1F1F1" height="68.8906" rx="12.5" ry="12.5" style="stroke:#181818;stroke-width:1.5;" width="119" x="913" y="1668.9063"/><text fill="#000000" font-family="sans-serif" font-size="14" font-weight="bold" lengthAdjust="spacing" textLength="50" x="923" y="1691.9014">Part 4</text><text fill="#000000" font-family="sans-serif" font-size="14" lengthAdjust="spacing" textLength="97" x="923" y="1708.1982">Advanced API</text><text fill="#000000" font-family="sans-serif" font-size="14" lengthAdjust="spacing" textLength="99" x="923" y="1724.4951">Development</text><rect fill="#F1F1F1" height="36.2969" rx="12.5" ry="12.5" style="stroke:#181818;stroke-width:1.5;" width="193" x="670" y="1628.9063"/><text fill="#000000" font-family="sans-serif" font-size="14" lengthAdjust="spacing" textLength="173" x="680" y="1651.9014">ASyncAPI Specifications</text><path d="M913,1703.3516 L903,1703.3516 C888,1703.3516 888,1647.0547 873,1647.0547 L863,1647.0547 " fill="none" style="stroke:#181818;stroke-width:1.0;"/><rect fill="#F1F1F1" height="36.2969" rx="12.5" ry="12.5" style="stroke:#181818;stroke-width:1.5;" width="185" x="678" y="1685.2031"/><text fill="#000000" font-family="sans-serif" font-size="14" lengthAdjust="spacing" textLength="165" x="688" y="1708.1982">How to Make a DCS API</text><rect fill="#F1F1F1" height="36.2969" rx="12.5" ry="12.5" style="stroke:#181818;stroke-width:1.5;" width="126" x="502" y="1685.2031"/><text fill="#000000" font-family="sans-serif" font-size="14" lengthAdjust="spacing" textLength="106" x="512" y="1708.1982">What is DCS ...</text><path d="M678,1703.3516 L668,1703.3516 C653,1703.3516 653,1703.3516 638,1703.3516 L628,1703.3516 " fill="none" style="stroke:#181818;stroke-width:1.0;"/><path d="M913,1703.3516 L903,1703.3516 C888,1703.3516 888,1703.3516 873,1703.3516 L863,1703.3516 " fill="none" style="stroke:#181818;stroke-width:1.0;"/><rect fill="#F1F1F1" height="36.2969" rx="12.5" ry="12.5" style="stroke:#181818;stroke-width:1.5;" width="234" x="629" y="1741.5"/><text fill="#000000" font-family="sans-serif" font-size="14" lengthAdjust="spacing" textLength="214" x="639" y="1764.4951">How to Make a Composite API</text><rect fill="#F1F1F1" height="36.2969" rx="12.5" ry="12.5" style="stroke:#181818;stroke-width:1.5;" width="327" x="252" y="1741.5"/><text fill="#000000" font-family="sans-serif" font-size="14" lengthAdjust="spacing" textLength="307" x="262" y="1764.4951">What is a Composite API/Component Suite</text><path d="M629,1759.6484 L619,1759.6484 C604,1759.6484 604,1759.6484 589,1759.6484 L579,1759.6484 " fill="none" style="stroke:#181818;stroke-width:1.0;"/><path d="M913,1703.3516 L903,1703.3516 C888,1703.3516 888,1759.6484 873,1759.6484 L863,1759.6484 " fill="none" style="stroke:#181818;stroke-width:1.0;"/><path d="M1082,898.8984 L1072,898.8984 C1057,898.8984 1057,1703.3516 1042,1703.3516 L1032,1703.3516 " fill="none" style="stroke:#181818;stroke-width:1.0;"/><!--SRC=[XLPTRnex47tVNp7AVKaKFcvxe-eALLK9a9GK2igIvA7qmNW7iB9hRsqlAVtrTyRx0GcLxXFOCnxFp3bprf-T5zPdIYUPoAFBxt_DhD0R_04VLvyMqnjZYmpwy_5Iqtg8EqnDdg7sONrRg0HNnZn7bvVi__rxJh7UTKHY9CpfBxpxyUDZT_LfgSTQUINIfPxfbH4sKNf3XovXRj7Ypq8vvT5rb_hMc0IyWQ_QlB339SGlOhD1svtrOuXpb6gjfF3AQ0T2a-yMuNuKBpX9eEj5eZOPb4SNPEFj8JgrqH3IJPL6LvgdIbhZpDh3Omm3as2vZOdondPSUMz7cIfOrOonNXkRXGnWIeTIk1PEoJ8c5sIIGleMn6XtIc8Bxj6Pmagi70R2YzHiMZ2p2TeMnTjHFutTrm6eR_jM-NDlKen2dswKTRwzK1c-RU4bNR1HpgEb3Q2agaGxncwMUkjzxdhTRhONKff2-uxFrhMvQwkJrTKnUiz1YXpsb3BNibPfaxZ9Sg7t4Czd0-ZdkJKxaKPb2dT6QJxfguxJoOqL6MTxpYYz6Flil4MHkGkeulMbHESOx5j5_QhoQblsf-I4Lhz3bvlhzJejK4iCkD-Dx_kzfNxQ2Zhxj2KMjU1BnHdoFbkWt6fYIXeytLbZw2T4TghQKl0T7bjXGVd1596RKEDv8oI3qrqOazOTlppK1rEXnGPv9EgogFnRiqEhXMv0xrkv9OPBNzW0A4zB693tvNXKaqKNBBK0ZIyS9gh3ZIbGNhUYxc-D3ECTzhuLsQg4CYnlJ4hyWeaWAFrX7ixOTb-aw8XJAPuTBB7SOYQ8JRbngY4aZ7w9B2VtA6gtcxJ_ATEk1gp9lrI6YJ4vERVBtZ0jPaIc9w80xxP3TgESHgO72olaCtlmNjyvzFK0SRN1-msGlMQgh-ae3LBfHHI2iNC5LWuLN84gWt5tC7pjVaqi8qJ88MOYu6OVFET5cb83Vb8O7mfkXs27bFWlixQCSY99S8iQhJWaFq-5zW_J2GoLOCASE3mumYW84moDBBY19pxCV9OSfdu5_AdFukl9tlsu6mViWhYTc4DbnIgjSpygZIU9MbY5fh4DiY1279SBedMx2H5YZu9c7kq-uGeUnbKUWMqXxI5YJhtOrG4Onobw0KDIHHhdRoAZEIQzbbO5nhVW4QqBVqXcSIxyjZeweHa6isxajSJao33Bgt8Ro-YNJ8i44nPNkeY4pz6TDu-p0FxqSVOsn8Yb-IHmCn5XjqBMlQdj5R9lgYRE5K4AmhqBf6Z4mSeuOEsW33T8J5O-nQCMK9Te6NlXYoghrybGGujVAasLiFj3OkSJjKQvb-HrKK5l3G6FRciC8njLCzIe5WosIDEYN5qyKxrkGubHgJP_WESLVFMP1gJM7s2PznU3Bsr12O7mtgfLuGze7aDmrDFQVDojCh7_xrcR1DKt8zqx072iS5UbmlMJ7JSaEP6vC2RzUAybS_ZrmwGP8VgsJSKpbGN3GHmaFLpF7orGBcnsEfq_kFEtbbKOJm-zCNR3IhDkn8NY8ZwZJkhtNDG8qAxi1xphlF_x_LNdQaLJz-7yGJ_JGqk3f20ydvuU61VH-Ury0YLWaF2daY6XmnVHdTZH5uAU4UJN0rwTBwON48_gJHZfdR96XnRTFKvB9whEnxdnmVd3LVkQr9hVHmJTupGQubeKgQUZql2hfWSFYvlslz647g95G1PrDE37YzsJBVuF]--></g></svg>