<svg xmlns="http://www.w3.org/2000/svg" xmlns:xlink="http://www.w3.org/1999/xlink" contentStyleType="text/css" data-diagram-type="JSON" height="441px" preserveAspectRatio="none" style="width:1956px;height:441px;background:#FFFFFF;" version="1.1" viewBox="0 0 1956 441" width="1956px" zoomAndPan="magnify"><defs/><g><rect fill="#F1F1F1" height="40.9766" rx="5" ry="5" style="stroke:#F1F1F1;stroke-width:1.5;" width="146.6016" x="10" y="51.209"/><text fill="#000000" font-family="sans-serif" font-size="14" font-weight="bold" lengthAdjust="spacing" textLength="91.1846" x="15" y="66.7441">rulesVersion</text><text fill="#000000" font-family="sans-serif" font-size="14" lengthAdjust="spacing" textLength="35.417" x="116.1846" y="66.7441">1.0.0</text><line style="stroke:#000000;stroke-width:1;" x1="111.1846" x2="111.1846" y1="51.209" y2="71.6973"/><line style="stroke:#000000;stroke-width:1;" x1="10" x2="156.6016" y1="71.6973" y2="71.6973"/><text fill="#000000" font-family="sans-serif" font-size="14" font-weight="bold" lengthAdjust="spacing" textLength="22.0596" x="15" y="87.2324">api</text><text fill="#000000" font-family="sans-serif" font-size="14" lengthAdjust="spacing" textLength="13.2891" x="116.1846" y="87.2324">&#160;&#160;&#160;</text><line style="stroke:#000000;stroke-width:1;" x1="111.1846" x2="111.1846" y1="71.6973" y2="92.1855"/><rect fill="none" height="40.9766" rx="5" ry="5" style="stroke:#000000;stroke-width:1.5;" width="146.6016" x="10" y="51.209"/><rect fill="#F1F1F1" height="143.418" rx="5" ry="5" style="stroke:#F1F1F1;stroke-width:1.5;" width="394.0283" x="194" y="10"/><rect fill="#CCFF02" height="20.4883" rx="2" ry="2" style="stroke:#CCFF02;stroke-width:1;" width="392.0283" x="195.5" y="10"/><text fill="#000000" font-family="sans-serif" font-size="14" font-weight="bold" lengthAdjust="spacing" textLength="39.2041" x="199" y="25.5352">name</text><text fill="#000000" font-family="sans-serif" font-size="14" lengthAdjust="spacing" textLength="40.8037" x="290.4023" y="25.5352">MyAPI</text><line style="stroke:#000000;stroke-width:1;" x1="285.4023" x2="285.4023" y1="10" y2="30.4883"/><line style="stroke:#000000;stroke-width:1;" x1="194" x2="588.0283" y1="30.4883" y2="30.4883"/><text fill="#000000" font-family="sans-serif" font-size="14" font-weight="bold" lengthAdjust="spacing" textLength="78.8594" x="199" y="46.0234">shortName</text><text fill="#000000" font-family="sans-serif" font-size="14" lengthAdjust="spacing" textLength="40.8037" x="290.4023" y="46.0234">MyAPI</text><line style="stroke:#000000;stroke-width:1;" x1="285.4023" x2="285.4023" y1="30.4883" y2="50.9766"/><line style="stroke:#000000;stroke-width:1;" x1="194" x2="588.0283" y1="50.9766" y2="50.9766"/><text fill="#000000" font-family="sans-serif" font-size="14" font-weight="bold" lengthAdjust="spacing" textLength="81.4023" x="199" y="66.5117">description</text><text fill="#000000" font-family="sans-serif" font-size="14" lengthAdjust="spacing" textLength="136.7461" x="290.4023" y="66.5117">This API describes...</text><line style="stroke:#000000;stroke-width:1;" x1="285.4023" x2="285.4023" y1="50.9766" y2="71.4648"/><line style="stroke:#000000;stroke-width:1;" x1="194" x2="588.0283" y1="71.4648" y2="71.4648"/><text fill="#000000" font-family="sans-serif" font-size="14" font-weight="bold" lengthAdjust="spacing" textLength="38.9717" x="199" y="87">tmfId</text><text fill="#000000" font-family="sans-serif" font-size="14" lengthAdjust="spacing" textLength="54.1748" x="290.4023" y="87">TMFxxx</text><line style="stroke:#000000;stroke-width:1;" x1="285.4023" x2="285.4023" y1="71.4648" y2="91.9531"/><line style="stroke:#000000;stroke-width:1;" x1="194" x2="588.0283" y1="91.9531" y2="91.9531"/><text fill="#000000" font-family="sans-serif" font-size="14" font-weight="bold" lengthAdjust="spacing" textLength="52.9512" x="199" y="107.4883">hostUrl</text><text fill="#000000" font-family="sans-serif" font-size="14" lengthAdjust="spacing" textLength="292.626" x="290.4023" y="107.4883">https://serverRoot/tmf-api/document/v5/</text><line style="stroke:#000000;stroke-width:1;" x1="285.4023" x2="285.4023" y1="91.9531" y2="112.4414"/><line style="stroke:#000000;stroke-width:1;" x1="194" x2="588.0283" y1="112.4414" y2="112.4414"/><text fill="#000000" font-family="sans-serif" font-size="14" font-weight="bold" lengthAdjust="spacing" textLength="53.4775" x="199" y="127.9766">version</text><text fill="#000000" font-family="sans-serif" font-size="14" lengthAdjust="spacing" textLength="35.417" x="290.4023" y="127.9766">5.0.0</text><line style="stroke:#000000;stroke-width:1;" x1="285.4023" x2="285.4023" y1="112.4414" y2="132.9297"/><line style="stroke:#000000;stroke-width:1;" x1="194" x2="588.0283" y1="132.9297" y2="132.9297"/><text fill="#000000" font-family="sans-serif" font-size="14" font-weight="bold" lengthAdjust="spacing" textLength="70.5537" x="199" y="148.4648">resources</text><text fill="#000000" font-family="sans-serif" font-size="14" lengthAdjust="spacing" textLength="13.2891" x="290.4023" y="148.4648">&#160;&#160;&#160;</text><line style="stroke:#000000;stroke-width:1;" x1="285.4023" x2="285.4023" y1="132.9297" y2="153.418"/><rect fill="none" height="143.418" rx="5" ry="5" style="stroke:#000000;stroke-width:1.5;" width="394.0283" x="194" y="10"/><rect fill="#F1F1F1" height="20.4883" rx="5" ry="5" style="stroke:#F1F1F1;stroke-width:1.5;" width="23.2891" x="625" y="132.4648"/><text fill="#000000" font-family="sans-serif" font-size="14" lengthAdjust="spacing" textLength="13.2891" x="630" y="148">&#160;&#160;&#160;</text><rect fill="none" height="20.4883" rx="5" ry="5" style="stroke:#000000;stroke-width:1.5;" width="23.2891" x="625" y="132.4648"/><rect fill="#F1F1F1" height="102.4414" rx="5" ry="5" style="stroke:#F1F1F1;stroke-width:1.5;" width="378.5039" x="685" y="91.4883"/><rect fill="#CCFF02" height="20.4883" rx="2" ry="2" style="stroke:#CCFF02;stroke-width:1;" width="376.5039" x="686.5" y="91.4883"/><text fill="#000000" font-family="sans-serif" font-size="14" font-weight="bold" lengthAdjust="spacing" textLength="39.2041" x="690" y="107.0234">name</text><text fill="#000000" font-family="sans-serif" font-size="14" lengthAdjust="spacing" textLength="81.1494" x="867.583" y="107.0234">MyResource</text><line style="stroke:#000000;stroke-width:1;" x1="862.583" x2="862.583" y1="91.4883" y2="111.9766"/><line style="stroke:#000000;stroke-width:1;" x1="685" x2="1063.5039" y1="111.9766" y2="111.9766"/><text fill="#000000" font-family="sans-serif" font-size="14" font-weight="bold" lengthAdjust="spacing" textLength="54.5713" x="690" y="127.5117">schema</text><text fill="#000000" font-family="sans-serif" font-size="14" lengthAdjust="spacing" textLength="190.9209" x="867.583" y="127.5117">.../MyResource.schema.json</text><line style="stroke:#000000;stroke-width:1;" x1="862.583" x2="862.583" y1="111.9766" y2="132.4648"/><line style="stroke:#000000;stroke-width:1;" x1="685" x2="1063.5039" y1="132.4648" y2="132.4648"/><text fill="#000000" font-family="sans-serif" font-size="14" font-weight="bold" lengthAdjust="spacing" textLength="68.2295" x="690" y="148">examples</text><text fill="#000000" font-family="sans-serif" font-size="14" lengthAdjust="spacing" textLength="13.2891" x="867.583" y="148">&#160;&#160;&#160;</text><line style="stroke:#000000;stroke-width:1;" x1="862.583" x2="862.583" y1="132.4648" y2="152.9531"/><line style="stroke:#000000;stroke-width:1;" x1="685" x2="1063.5039" y1="152.9531" y2="152.9531"/><text fill="#000000" font-family="sans-serif" font-size="14" font-weight="bold" lengthAdjust="spacing" textLength="167.583" x="690" y="168.4883">supportedHttpMethods</text><text fill="#000000" font-family="sans-serif" font-size="14" lengthAdjust="spacing" textLength="13.2891" x="867.583" y="168.4883">&#160;&#160;&#160;</text><line style="stroke:#000000;stroke-width:1;" x1="862.583" x2="862.583" y1="152.9531" y2="173.4414"/><line style="stroke:#000000;stroke-width:1;" x1="685" x2="1063.5039" y1="173.4414" y2="173.4414"/><text fill="#000000" font-family="sans-serif" font-size="14" font-weight="bold" lengthAdjust="spacing" textLength="90.6787" x="690" y="188.9766">notifications</text><text fill="#000000" font-family="sans-serif" font-size="14" lengthAdjust="spacing" textLength="13.2891" x="867.583" y="188.9766">&#160;&#160;&#160;</text><line style="stroke:#000000;stroke-width:1;" x1="862.583" x2="862.583" y1="173.4414" y2="193.9297"/><rect fill="none" height="102.4414" rx="5" ry="5" style="stroke:#000000;stroke-width:1.5;" width="378.5039" x="685" y="91.4883"/><rect fill="#F1F1F1" height="20.4883" rx="5" ry="5" style="stroke:#F1F1F1;stroke-width:1.5;" width="23.2891" x="1133" y="69.4648"/><text fill="#000000" font-family="sans-serif" font-size="14" lengthAdjust="spacing" textLength="13.2891" x="1138" y="85">&#160;&#160;&#160;</text><rect fill="none" height="20.4883" rx="5" ry="5" style="stroke:#000000;stroke-width:1.5;" width="23.2891" x="1133" y="69.4648"/><rect fill="#F1F1F1" height="20.4883" rx="5" ry="5" style="stroke:#F1F1F1;stroke-width:1.5;" width="228.8721" x="1278" y="36.4648"/><text fill="#000000" font-family="sans-serif" font-size="14" font-weight="bold" lengthAdjust="spacing" textLength="23.1123" x="1283" y="52">file</text><text fill="#000000" font-family="sans-serif" font-size="14" lengthAdjust="spacing" textLength="185.7598" x="1316.1123" y="52">.../Document.example.json</text><line style="stroke:#000000;stroke-width:1;" x1="1311.1123" x2="1311.1123" y1="36.4648" y2="56.9531"/><rect fill="none" height="20.4883" rx="5" ry="5" style="stroke:#000000;stroke-width:1.5;" width="228.8721" x="1278" y="36.4648"/><rect fill="#F1F1F1" height="81.9531" rx="5" ry="5" style="stroke:#F1F1F1;stroke-width:1.5;" width="87.416" x="1101" y="121.709"/><text fill="#000000" font-family="sans-serif" font-size="14" font-weight="bold" lengthAdjust="spacing" textLength="28.5059" x="1106" y="137.2441">GET</text><text fill="#000000" font-family="sans-serif" font-size="14" lengthAdjust="spacing" textLength="13.2891" x="1170.127" y="137.2441">&#160;&#160;&#160;</text><line style="stroke:#000000;stroke-width:1;" x1="1165.127" x2="1165.127" y1="121.709" y2="142.1973"/><line style="stroke:#000000;stroke-width:1;" x1="1101" x2="1188.416" y1="142.1973" y2="142.1973"/><text fill="#000000" font-family="sans-serif" font-size="14" font-weight="bold" lengthAdjust="spacing" textLength="49.4512" x="1106" y="157.7324">PATCH</text><text fill="#000000" font-family="sans-serif" font-size="14" lengthAdjust="spacing" textLength="13.2891" x="1170.127" y="157.7324">&#160;&#160;&#160;</text><line style="stroke:#000000;stroke-width:1;" x1="1165.127" x2="1165.127" y1="142.1973" y2="162.6855"/><line style="stroke:#000000;stroke-width:1;" x1="1101" x2="1188.416" y1="162.6855" y2="162.6855"/><text fill="#000000" font-family="sans-serif" font-size="14" font-weight="bold" lengthAdjust="spacing" textLength="37.7686" x="1106" y="178.2207">POST</text><text fill="#000000" font-family="sans-serif" font-size="14" lengthAdjust="spacing" textLength="13.2891" x="1170.127" y="178.2207">&#160;&#160;&#160;</text><line style="stroke:#000000;stroke-width:1;" x1="1165.127" x2="1165.127" y1="162.6855" y2="183.1738"/><line style="stroke:#000000;stroke-width:1;" x1="1101" x2="1188.416" y1="183.1738" y2="183.1738"/><text fill="#000000" font-family="sans-serif" font-size="14" font-weight="bold" lengthAdjust="spacing" textLength="54.127" x="1106" y="198.709">DELETE</text><text fill="#000000" font-family="sans-serif" font-size="14" lengthAdjust="spacing" textLength="13.2891" x="1170.127" y="198.709">&#160;&#160;&#160;</text><line style="stroke:#000000;stroke-width:1;" x1="1165.127" x2="1165.127" y1="183.1738" y2="203.6621"/><rect fill="none" height="81.9531" rx="5" ry="5" style="stroke:#000000;stroke-width:1.5;" width="87.416" x="1101" y="121.709"/><rect fill="#F1F1F1" height="20.4883" rx="5" ry="5" style="stroke:#F1F1F1;stroke-width:1.5;" width="124.9385" x="1330" y="74.4648"/><text fill="#000000" font-family="sans-serif" font-size="14" font-weight="bold" lengthAdjust="spacing" textLength="61.4346" x="1335" y="90">required</text><text fill="#000000" font-family="sans-serif" font-size="14" lengthAdjust="spacing" textLength="43.5039" x="1406.4346" y="90">&#9745; true</text><line style="stroke:#000000;stroke-width:1;" x1="1401.4346" x2="1401.4346" y1="74.4648" y2="94.9531"/><rect fill="none" height="20.4883" rx="5" ry="5" style="stroke:#000000;stroke-width:1.5;" width="124.9385" x="1330" y="74.4648"/><rect fill="#F1F1F1" height="40.9766" rx="5" ry="5" style="stroke:#F1F1F1;stroke-width:1.5;" width="223.7246" x="1280.5" y="113.209"/><text fill="#000000" font-family="sans-serif" font-size="14" font-weight="bold" lengthAdjust="spacing" textLength="61.4346" x="1285.5" y="128.7441">required</text><text fill="#000000" font-family="sans-serif" font-size="14" lengthAdjust="spacing" textLength="43.5039" x="1455.7207" y="128.7441">&#9745; true</text><line style="stroke:#000000;stroke-width:1;" x1="1450.7207" x2="1450.7207" y1="113.209" y2="133.6973"/><line style="stroke:#000000;stroke-width:1;" x1="1280.5" x2="1504.2246" y1="133.6973" y2="133.6973"/><text fill="#000000" font-family="sans-serif" font-size="14" font-weight="bold" lengthAdjust="spacing" textLength="160.2207" x="1285.5" y="149.2324">parameterRestrictions</text><text fill="#000000" font-family="sans-serif" font-size="14" lengthAdjust="spacing" textLength="13.2891" x="1455.7207" y="149.2324">&#160;&#160;&#160;</text><line style="stroke:#000000;stroke-width:1;" x1="1450.7207" x2="1450.7207" y1="133.6973" y2="154.1855"/><rect fill="none" height="40.9766" rx="5" ry="5" style="stroke:#000000;stroke-width:1.5;" width="223.7246" x="1280.5" y="113.209"/><rect fill="#F1F1F1" height="20.4883" rx="5" ry="5" style="stroke:#F1F1F1;stroke-width:1.5;" width="179.0654" x="1597" y="133.4648"/><text fill="#000000" font-family="sans-serif" font-size="14" font-weight="bold" lengthAdjust="spacing" textLength="145.7764" x="1602" y="149">excludedParameters</text><text fill="#000000" font-family="sans-serif" font-size="14" lengthAdjust="spacing" textLength="13.2891" x="1757.7764" y="149">&#160;&#160;&#160;</text><line style="stroke:#000000;stroke-width:1;" x1="1752.7764" x2="1752.7764" y1="133.4648" y2="153.9531"/><rect fill="none" height="20.4883" rx="5" ry="5" style="stroke:#000000;stroke-width:1.5;" width="179.0654" x="1597" y="133.4648"/><rect fill="#F1F1F1" height="102.4414" rx="5" ry="5" style="stroke:#F1F1F1;stroke-width:1.5;" width="131.1533" x="1813" y="92.4883"/><text fill="#000000" font-family="sans-serif" font-size="14" lengthAdjust="spacing" textLength="12.8584" x="1818" y="108.0234">id</text><line style="stroke:#000000;stroke-width:1;" x1="1813" x2="1944.1533" y1="112.9766" y2="112.9766"/><text fill="#000000" font-family="sans-serif" font-size="14" lengthAdjust="spacing" textLength="27.3643" x="1818" y="128.5117">href</text><line style="stroke:#000000;stroke-width:1;" x1="1813" x2="1944.1533" y1="133.4648" y2="133.4648"/><text fill="#000000" font-family="sans-serif" font-size="14" lengthAdjust="spacing" textLength="41.1797" x="1818" y="149">@type</text><line style="stroke:#000000;stroke-width:1;" x1="1813" x2="1944.1533" y1="153.9531" y2="153.9531"/><text fill="#000000" font-family="sans-serif" font-size="14" lengthAdjust="spacing" textLength="76.2754" x="1818" y="169.4883">@baseType</text><line style="stroke:#000000;stroke-width:1;" x1="1813" x2="1944.1533" y1="174.4414" y2="174.4414"/><text fill="#000000" font-family="sans-serif" font-size="14" lengthAdjust="spacing" textLength="121.1533" x="1818" y="189.9766">@schemaLocation</text><rect fill="none" height="102.4414" rx="5" ry="5" style="stroke:#000000;stroke-width:1.5;" width="131.1533" x="1813" y="92.4883"/><rect fill="#F1F1F1" height="40.9766" rx="5" ry="5" style="stroke:#F1F1F1;stroke-width:1.5;" width="206.2861" x="1289.5" y="172.209"/><text fill="#000000" font-family="sans-serif" font-size="14" font-weight="bold" lengthAdjust="spacing" textLength="61.4346" x="1294.5" y="187.7441">required</text><text fill="#000000" font-family="sans-serif" font-size="14" lengthAdjust="spacing" textLength="43.5039" x="1447.2822" y="187.7441">&#9745; true</text><line style="stroke:#000000;stroke-width:1;" x1="1442.2822" x2="1442.2822" y1="172.209" y2="192.6973"/><line style="stroke:#000000;stroke-width:1;" x1="1289.5" x2="1495.7861" y1="192.6973" y2="192.6973"/><text fill="#000000" font-family="sans-serif" font-size="14" font-weight="bold" lengthAdjust="spacing" textLength="142.7822" x="1294.5" y="208.2324">requiredParameters</text><text fill="#000000" font-family="sans-serif" font-size="14" lengthAdjust="spacing" textLength="13.2891" x="1447.2822" y="208.2324">&#160;&#160;&#160;</text><line style="stroke:#000000;stroke-width:1;" x1="1442.2822" x2="1442.2822" y1="192.6973" y2="213.1855"/><rect fill="none" height="40.9766" rx="5" ry="5" style="stroke:#000000;stroke-width:1.5;" width="206.2861" x="1289.5" y="172.209"/><rect fill="#F1F1F1" height="20.4883" rx="5" ry="5" style="stroke:#F1F1F1;stroke-width:1.5;" width="47.29" x="1663" y="192.4648"/><text fill="#000000" font-family="sans-serif" font-size="14" lengthAdjust="spacing" textLength="37.29" x="1668" y="208">name</text><rect fill="none" height="20.4883" rx="5" ry="5" style="stroke:#000000;stroke-width:1.5;" width="47.29" x="1663" y="192.4648"/><rect fill="#F1F1F1" height="20.4883" rx="5" ry="5" style="stroke:#F1F1F1;stroke-width:1.5;" width="124.9385" x="1330" y="231.4648"/><text fill="#000000" font-family="sans-serif" font-size="14" font-weight="bold" lengthAdjust="spacing" textLength="61.4346" x="1335" y="247">required</text><text fill="#000000" font-family="sans-serif" font-size="14" lengthAdjust="spacing" textLength="43.5039" x="1406.4346" y="247">&#9745; true</text><line style="stroke:#000000;stroke-width:1;" x1="1401.4346" x2="1401.4346" y1="231.4648" y2="251.9531"/><rect fill="none" height="20.4883" rx="5" ry="5" style="stroke:#000000;stroke-width:1.5;" width="124.9385" x="1330" y="231.4648"/><rect fill="#F1F1F1" height="61.4648" rx="5" ry="5" style="stroke:#F1F1F1;stroke-width:1.5;" width="23.2891" x="1133" y="298.9766"/><text fill="#000000" font-family="sans-serif" font-size="14" lengthAdjust="spacing" textLength="13.2891" x="1138" y="314.5117">&#160;&#160;&#160;</text><line style="stroke:#000000;stroke-width:1;" x1="1133" x2="1156.2891" y1="319.4648" y2="319.4648"/><text fill="#000000" font-family="sans-serif" font-size="14" lengthAdjust="spacing" textLength="13.2891" x="1138" y="335">&#160;&#160;&#160;</text><line style="stroke:#000000;stroke-width:1;" x1="1133" x2="1156.2891" y1="339.9531" y2="339.9531"/><text fill="#000000" font-family="sans-serif" font-size="14" lengthAdjust="spacing" textLength="13.2891" x="1138" y="355.4883">&#160;&#160;&#160;</text><rect fill="none" height="61.4648" rx="5" ry="5" style="stroke:#000000;stroke-width:1.5;" width="23.2891" x="1133" y="298.9766"/><rect fill="#F1F1F1" height="40.9766" rx="5" ry="5" style="stroke:#F1F1F1;stroke-width:1.5;" width="334.624" x="1225" y="270.209"/><text fill="#000000" font-family="sans-serif" font-size="14" font-weight="bold" lengthAdjust="spacing" textLength="39.2041" x="1230" y="285.7441">name</text><text fill="#000000" font-family="sans-serif" font-size="14" lengthAdjust="spacing" textLength="41.4668" x="1294.5713" y="285.7441">create</text><line style="stroke:#000000;stroke-width:1;" x1="1289.5713" x2="1289.5713" y1="270.209" y2="290.6973"/><line style="stroke:#000000;stroke-width:1;" x1="1225" x2="1559.624" y1="290.6973" y2="290.6973"/><text fill="#000000" font-family="sans-serif" font-size="14" font-weight="bold" lengthAdjust="spacing" textLength="54.5713" x="1230" y="306.2324">schema</text><text fill="#000000" font-family="sans-serif" font-size="14" lengthAdjust="spacing" textLength="260.0527" x="1294.5713" y="306.2324">.../DocumentCreateEvent.schema.json</text><line style="stroke:#000000;stroke-width:1;" x1="1289.5713" x2="1289.5713" y1="290.6973" y2="311.1855"/><rect fill="none" height="40.9766" rx="5" ry="5" style="stroke:#000000;stroke-width:1.5;" width="334.624" x="1225" y="270.209"/><rect fill="#F1F1F1" height="40.9766" rx="5" ry="5" style="stroke:#F1F1F1;stroke-width:1.5;" width="305.4072" x="1240" y="329.209"/><text fill="#000000" font-family="sans-serif" font-size="14" font-weight="bold" lengthAdjust="spacing" textLength="39.2041" x="1245" y="344.7441">name</text><text fill="#000000" font-family="sans-serif" font-size="14" lengthAdjust="spacing" textLength="48.8086" x="1309.5713" y="344.7441">change</text><line style="stroke:#000000;stroke-width:1;" x1="1304.5713" x2="1304.5713" y1="329.209" y2="349.6973"/><line style="stroke:#000000;stroke-width:1;" x1="1240" x2="1545.4072" y1="349.6973" y2="349.6973"/><text fill="#000000" font-family="sans-serif" font-size="14" font-weight="bold" lengthAdjust="spacing" textLength="54.5713" x="1245" y="365.2324">schema</text><text fill="#000000" font-family="sans-serif" font-size="14" lengthAdjust="spacing" textLength="230.8359" x="1309.5713" y="365.2324">.../DocumentChange.schema.json</text><line style="stroke:#000000;stroke-width:1;" x1="1304.5713" x2="1304.5713" y1="349.6973" y2="370.1855"/><rect fill="none" height="40.9766" rx="5" ry="5" style="stroke:#000000;stroke-width:1.5;" width="305.4072" x="1240" y="329.209"/><rect fill="#F1F1F1" height="40.9766" rx="5" ry="5" style="stroke:#F1F1F1;stroke-width:1.5;" width="333.8105" x="1225.5" y="388.209"/><text fill="#000000" font-family="sans-serif" font-size="14" font-weight="bold" lengthAdjust="spacing" textLength="39.2041" x="1230.5" y="403.7441">name</text><text fill="#000000" font-family="sans-serif" font-size="14" lengthAdjust="spacing" textLength="41.4941" x="1295.0713" y="403.7441">delete</text><line style="stroke:#000000;stroke-width:1;" x1="1290.0713" x2="1290.0713" y1="388.209" y2="408.6973"/><line style="stroke:#000000;stroke-width:1;" x1="1225.5" x2="1559.3105" y1="408.6973" y2="408.6973"/><text fill="#000000" font-family="sans-serif" font-size="14" font-weight="bold" lengthAdjust="spacing" textLength="54.5713" x="1230.5" y="424.2324">schema</text><text fill="#000000" font-family="sans-serif" font-size="14" lengthAdjust="spacing" textLength="259.2393" x="1295.0713" y="424.2324">.../DocumentDeleteEvent.schema.json</text><line style="stroke:#000000;stroke-width:1;" x1="1290.0713" x2="1290.0713" y1="408.6973" y2="429.1855"/><rect fill="none" height="40.9766" rx="5" ry="5" style="stroke:#000000;stroke-width:1.5;" width="333.8105" x="1225.5" y="388.209"/><path d="M1143.855,79.889 L1156.624,77.4493 C1172.1613,74.4806 1200.5779,69.232 1225,65.709 C1244.4632,62.9013 1265.2519,60.2552 1285.3196,57.8802" fill="none" style="stroke:#000000;stroke-width:1;stroke-dasharray:3,3;"/><path d="M1285.6783,60.9408 L1287.6151,57.6112 L1284.9609,54.8196 L1292.9712,56.9834 L1285.6783,60.9408" fill="#000000"/><ellipse cx="1143.855" cy="79.889" fill="#000000" rx="3" ry="3" style="stroke:#000000;stroke-width:1;"/><path d="M1052,142.709 L1065,142.709 C1085.8273,142.709 1084.7355,125.7183 1101,112.709 C1109.497,105.9126 1119.0903,98.5237 1127.0563,92.4638" fill="none" style="stroke:#000000;stroke-width:1;stroke-dasharray:3,3;"/><path d="M1128.9505,94.9634 L1128.931,91.0432 L1125.1621,89.9643 L1133.3052,87.7284 L1128.9505,94.9634" fill="#000000"/><ellipse cx="1052" cy="142.709" fill="#000000" rx="3" ry="3" style="stroke:#000000;stroke-width:1;"/><path d="M1176,131.709 L1189,131.709 C1209,131.709 1206.4367,112.1524 1225,104.709 C1255.6069,92.4364 1291.7082,87.0995 1322.5003,84.9674" fill="none" style="stroke:#000000;stroke-width:1;stroke-dasharray:3,3;"/><path d="M1322.6904,88.0504 L1324.8126,84.8248 L1322.3102,81.8844 L1330.2079,84.4921 L1322.6904,88.0504" fill="#000000"/><ellipse cx="1176" cy="131.709" fill="#000000" rx="3" ry="3" style="stroke:#000000;stroke-width:1;"/><path d="M1764,143.709 L1777,143.709 C1786.2701,143.709 1796.0188,143.709 1805.6531,143.709" fill="none" style="stroke:#000000;stroke-width:1;stroke-dasharray:3,3;"/><path d="M1805.6531,146.7852 L1807.9603,143.709 L1805.6531,140.6327 L1813.3438,143.709 L1805.6531,146.7852" fill="#000000"/><ellipse cx="1764" cy="143.709" fill="#000000" rx="3" ry="3" style="stroke:#000000;stroke-width:1;"/><path d="M1493,143.709 L1506,143.709 C1533.1362,143.709 1562.5736,143.709 1589.6288,143.709" fill="none" style="stroke:#000000;stroke-width:1;stroke-dasharray:3,3;"/><path d="M1589.6288,146.7345 L1591.898,143.709 L1589.6288,140.6834 L1597.1927,143.709 L1589.6288,146.7345" fill="#000000"/><ellipse cx="1493" cy="143.709" fill="#000000" rx="3" ry="3" style="stroke:#000000;stroke-width:1;"/><path d="M1176,152.709 L1189,152.709 C1216.2592,152.709 1245.4882,150.9896 1273.035,148.5854" fill="none" style="stroke:#000000;stroke-width:1;stroke-dasharray:3,3;"/><path d="M1273.3132,151.6741 L1275.3516,148.3767 L1272.7569,145.4966 L1280.757,147.8899 L1273.3132,151.6741" fill="#000000"/><ellipse cx="1176" cy="152.709" fill="#000000" rx="3" ry="3" style="stroke:#000000;stroke-width:1;"/><path d="M1483,202.709 L1496,202.709 C1552.51,202.709 1618.474,202.709 1655.9323,202.709" fill="none" style="stroke:#000000;stroke-width:1;stroke-dasharray:3,3;"/><path d="M1655.9323,205.7277 L1658.1964,202.709 L1655.9323,199.6902 L1663.4792,202.709 L1655.9323,205.7277" fill="#000000"/><ellipse cx="1483" cy="202.709" fill="#000000" rx="3" ry="3" style="stroke:#000000;stroke-width:1;"/><path d="M1176,172.709 L1189,172.709 C1219.3617,172.709 1252.1552,174.9521 1282.3464,177.936" fill="none" style="stroke:#000000;stroke-width:1;stroke-dasharray:3,3;"/><path d="M1282.0369,180.9826 L1284.6314,178.1681 L1282.6558,174.8894 L1289.963,178.7096 L1282.0369,180.9826" fill="#000000"/><ellipse cx="1176" cy="172.709" fill="#000000" rx="3" ry="3" style="stroke:#000000;stroke-width:1;"/><path d="M1176,193.709 L1189,193.709 C1209.5456,193.709 1206.042,214.7895 1225,222.709 C1255.5307,235.4628 1291.7789,240.646 1322.6899,242.4631" fill="none" style="stroke:#000000;stroke-width:1;stroke-dasharray:3,3;"/><path d="M1322.5331,245.5579 L1325.011,242.5806 L1322.8466,239.3683 L1330.4269,242.855 L1322.5331,245.5579" fill="#000000"/><ellipse cx="1176" cy="193.709" fill="#000000" rx="3" ry="3" style="stroke:#000000;stroke-width:1;"/><path d="M1052,162.709 L1065,162.709 C1074.3071,162.709 1084.231,162.709 1093.7907,162.709" fill="none" style="stroke:#000000;stroke-width:1;stroke-dasharray:3,3;"/><path d="M1093.7907,165.7369 L1096.0616,162.709 L1093.7907,159.681 L1101.3605,162.709 L1093.7907,165.7369" fill="#000000"/><ellipse cx="1052" cy="162.709" fill="#000000" rx="3" ry="3" style="stroke:#000000;stroke-width:1;"/><path d="M1145,309.709 L1158,309.709 C1177.3357,309.709 1197.5407,309.0565 1217.6289,307.9934" fill="none" style="stroke:#000000;stroke-width:1;stroke-dasharray:3,3;"/><path d="M1217.7997,311.0699 L1219.9363,307.8653 L1217.4581,304.9169 L1225.3201,307.5664 L1217.7997,311.0699" fill="#000000"/><ellipse cx="1145" cy="309.709" fill="#000000" rx="3" ry="3" style="stroke:#000000;stroke-width:1;"/><path d="M1145,329.709 L1158,329.709 C1182.2027,329.709 1207.7624,330.7843 1232.7487,332.4362" fill="none" style="stroke:#000000;stroke-width:1;stroke-dasharray:3,3;"/><path d="M1232.5365,335.5297 L1235.0689,332.5954 L1232.961,329.3427 L1240.4825,332.9668 L1232.5365,335.5297" fill="#000000"/><ellipse cx="1145" cy="329.709" fill="#000000" rx="3" ry="3" style="stroke:#000000;stroke-width:1;"/><path d="M1145,349.709 L1158,349.709 C1190.6266,349.709 1193.7967,370.1774 1225,379.709 C1232.757,382.0785 1240.7795,384.2739 1248.9204,386.3053" fill="none" style="stroke:#000000;stroke-width:1;stroke-dasharray:3,3;"/><path d="M1248.1925,389.3075 L1251.1721,386.8512 L1249.6483,383.3031 L1256.4259,388.125 L1248.1925,389.3075" fill="#000000"/><ellipse cx="1145" cy="349.709" fill="#000000" rx="3" ry="3" style="stroke:#000000;stroke-width:1;"/><path d="M1052,183.709 L1065,183.709 C1089.5195,183.709 1116.3455,248.2103 1131.5794,291.4684" fill="none" style="stroke:#000000;stroke-width:1;stroke-dasharray:3,3;"/><path d="M1128.6683,292.4784 L1132.3369,293.6517 L1134.4905,290.4585 L1134.1042,298.7461 L1128.6683,292.4784" fill="#000000"/><ellipse cx="1052" cy="183.709" fill="#000000" rx="3" ry="3" style="stroke:#000000;stroke-width:1;"/><path d="M635.7529,142.709 L648.7529,142.709 C655.8689,142.709 665.8547,142.709 677.6986,142.709" fill="none" style="stroke:#000000;stroke-width:1;stroke-dasharray:3,3;"/><path d="M677.6986,145.7512 L679.9803,142.709 L677.6986,139.6667 L685.3042,142.709 L677.6986,145.7512" fill="#000000"/><ellipse cx="635.7529" cy="142.709" fill="#000000" rx="3" ry="3" style="stroke:#000000;stroke-width:1;"/><path d="M575.5,142.709 L588.5,142.709 C598.2232,142.709 609.0659,142.709 617.9344,142.709" fill="none" style="stroke:#000000;stroke-width:1;stroke-dasharray:3,3;"/><path d="M617.9344,145.7093 L620.1846,142.709 L617.9344,139.7087 L625.4351,142.709 L617.9344,145.7093" fill="#000000"/><ellipse cx="575.5" cy="142.709" fill="#000000" rx="3" ry="3" style="stroke:#000000;stroke-width:1;"/><path d="M145,81.709 L158,81.709 C167.3162,81.709 176.8423,81.709 186.4649,81.709" fill="none" style="stroke:#000000;stroke-width:1;stroke-dasharray:3,3;"/><path d="M186.4649,84.8032 L188.7856,81.709 L186.4649,78.6147 L194.2005,81.709 L186.4649,84.8032" fill="#000000"/><ellipse cx="145" cy="81.709" fill="#000000" rx="3" ry="3" style="stroke:#000000;stroke-width:1;"/><!--SRC=[fLLBJ-Cm4BxdLuoo5v3Q94MmZvnuj1JO1Ye8lQmuc6JQU9NQMTk9MgtwtzVE0z90UMWFbUhvldbzCtQEfI92_PQSMLyIkaXI_LDWfqIgQx94UyjACcg32pRRYGYKF1SHolBajTX_BT1mdgASeP2KCzi7U-1uZcVt36GY-61OKBjeF5YVJ2zBN1jbmaLLL1U9KKQ2PggE6YPKWeQXiZ-YT1oduQhb_38kMS7vQhLgp0cNwbwa1aYKogJlkX95WUAMS-Lgfxukq8rvb2-HARSuSXlFuhcTewTse2s53xzA4zJjTLgyhOcrOzLhbE2I65oNxZvpd0fmpC3QV5oHPPPkvThELxBcDCKcvh1knQbTgv0j_kRf_qExi3pBz1Wmlj0g1QWI7ikdkTMSyIZic4ev_kHKe95UYHpRYNfjv-b9U7Rnhdjl6ys8q78gFIsKIj38R89y4QJKAKhp6EDfuz1LhERHsEwzj2O2vw_PZzKwmrU1Ho8nt0LMivpmY9IRss4yR9qtkmMxkGi_grU3lYb3VN5trRHTnN0q6OMZJutTUYMIpRYYSrefyiusDpSe4aXKL-7E3Mgs_QpaZWgp-EshjAklNIaJmXOVJLbo_oTRZ2b-jC5XoNsxGQixpifYJXjhOnqZYyiFWZLD2LFtmGJgDmu6pe5tSEGClBqmHxZc1NY7CFZc7tZ-uGyO1o4OVD_Q6qydKBrO45Dp9HzpCz5zwueK16vpfkWIVRZ9a5qDVpO66B622ivC8zRLB7WcV3tidr85T-MJ3BF06kASvAdI7X6FALluS1-UzxzR4orsJXOwDZBhZEkuOkt3-FGV]--></g></svg>